<svg xmlns="http://www.w3.org/2000/svg" xmlns:xlink="http://www.w3.org/1999/xlink" version="1.1" class="marks" width="390" height="288" viewBox="0 0 390 288"><rect width="390" height="288" fill="white"/><g fill="none" stroke-miterlimit="10" transform="translate(5,59)"><g class="mark-group role-frame root" role="graphics-object" aria-roledescription="group mark container"><g transform="translate(0,0)"><path class="background" aria-hidden="true" d="M0,0h300v200h-300Z"/><g><g class="mark-arc role-mark layer_0_marks" role="graphics-object" aria-roledescription="arc mark container"><path aria-label="Value: 118.41; Variable: Bioenergy; Order: 4" role="graphics-symbol" aria-roledescription="arc mark" transform="translate(150,100)" d="M-78.848,61.506A100,100,0,0,0,-58.956,80.772L-29.478,40.386A50,50,0,0,1,-39.424,30.753Z" fill="#134226"/><path aria-label="Value: 400.44; Variable: Coal; Order: 1" role="graphics-symbol" aria-roledescription="arc mark" transform="translate(150,100)" d="M80.729,-59.016A100,100,0,0,0,0,-100L0,-50A50,50,0,0,1,40.364,-29.508Z" fill="#8c6c12"/><path aria-label="Value: 509.17; Variable: Gas; Order: 2" role="graphics-symbol" aria-roledescription="arc mark" transform="translate(150,100)" d="M84.544,53.406A100,100,0,0,0,80.729,-59.016L40.364,-29.508A50,50,0,0,1,42.272,26.703Z" fill="#f3892c"/><path aria-label="Value: 337.77; Variable: Hydro; Order: 5" role="graphics-symbol" aria-roledescription="arc mark" transform="translate(150,100)" d="M-99.156,-12.968A100,100,0,0,0,-78.848,61.506L-39.424,30.753A50,50,0,0,1,-49.578,-6.484Z" fill="#8fc6fa"/><path aria-label="Value: 698.09; Variable: Nuclear; Order: 3" role="graphics-symbol" aria-roledescription="arc mark" transform="translate(150,100)" d="M-58.956,80.772A100,100,0,0,0,84.544,53.406L42.272,26.703A50,50,0,0,1,-29.478,40.386Z" fill="#feb99a"/><path aria-label="Value: 153.06; Variable: Solar; Order: 6" role="graphics-symbol" aria-roledescription="arc mark" transform="translate(150,100)" d="M-88.273,-46.989A100,100,0,0,0,-99.156,-12.968L-49.578,-6.484A50,50,0,0,1,-44.136,-23.494Z" fill="#1D435E"/><path aria-label="Value: 374.91; Variable: Wind; Order: 7" role="graphics-symbol" aria-roledescription="arc mark" transform="translate(150,100)" d="M-20.062,-97.967A100,100,0,0,0,-88.273,-46.989L-44.136,-23.494A50,50,0,0,1,-10.031,-48.983Z" fill="#BBDFC5"/><path aria-label="Value: 86.09; Variable: Other; Order: 8" role="graphics-symbol" aria-roledescription="arc mark" transform="translate(150,100)" d="M0,-100A100,100,0,0,0,-20.062,-97.967L-10.031,-48.983A50,50,0,0,1,0,-50Z" fill="#808080"/></g><g class="mark-text role-mark layer_1_marks" role="graphics-object" aria-roledescription="text mark container"><text aria-label="Value: 118.41; Variable: Bioenergy; Order: 4; percentage: 4.42%" role="graphics-symbol" aria-roledescription="text mark" text-anchor="middle" transform="translate(66.513244104125,190.1972249552303)" font-family="sans-serif" font-size="12px" fill="#134226">4.42%</text><text aria-label="Value: 400.44; Variable: Coal; Order: 1; percentage: 14.95%" role="graphics-symbol" aria-roledescription="text mark" text-anchor="middle" transform="translate(204.32188490729337,-3.0006206529605777)" font-family="sans-serif" font-size="12px" fill="#8c6c12">14.95%</text><text aria-label="Value: 509.17; Variable: Gas; Order: 2; percentage: 19.01%" role="graphics-symbol" aria-roledescription="text mark" text-anchor="middle" transform="translate(269.93094355296074,99.92952355410993)" font-family="sans-serif" font-size="12px" fill="#f3892c">19.01%</text><text aria-label="Value: 337.77; Variable: Hydro; Order: 5; percentage: 12.61%" role="graphics-symbol" aria-roledescription="text mark" text-anchor="middle" transform="translate(34.22696434928291,135.56903888650697)" font-family="sans-serif" font-size="12px" fill="#8fc6fa">12.61%</text><text aria-label="Value: 698.09; Variable: Nuclear; Order: 3; percentage: 26.07%" role="graphics-symbol" aria-roledescription="text mark" text-anchor="middle" transform="translate(172.47934138591154,221.87569389342167)" font-family="sans-serif" font-size="12px" fill="#feb99a">26.07%</text><text aria-label="Value: 153.06; Variable: Solar; Order: 6; percentage: 5.72%" role="graphics-symbol" aria-roledescription="text mark" text-anchor="middle" transform="translate(35.70544024552568,67.43835875496154)" font-family="sans-serif" font-size="12px" fill="#1D435E">5.72%</text><text aria-label="Value: 374.91; Variable: Wind; Order: 7; percentage: 14.00%" role="graphics-symbol" aria-roledescription="text mark" text-anchor="middle" transform="translate(78.16226075472633,7.878518425234063)" font-family="sans-serif" font-size="12px" fill="#BBDFC5">14.00%</text><text aria-label="Value: 86.09; Variable: Other; Order: 8; percentage: 3.21%" role="graphics-symbol" aria-roledescription="text mark" text-anchor="middle" transform="translate(137.90114068390682,-15.38851537417402)" font-family="sans-serif" font-size="12px" fill="#808080">3.21%</text></g><g class="mark-group role-legend" role="graphics-symbol" aria-roledescription="legend" aria-label="Symbol legend for fill color with 8 values: Coal, Gas, Nuclear, Bioenergy, Hydro, ending with Other"><g transform="translate(318,0)"><path class="background" aria-hidden="true" d="M0,0h62v102h-62Z" pointer-events="none"/><g><g class="mark-group role-legend-entry"><g transform="translate(0,0)"><path class="background" aria-hidden="true" d="M0,0h0v0h0Z" pointer-events="none"/><g><g class="mark-group role-scope" role="graphics-object" aria-roledescription="group mark container"><g transform="translate(0,0)"><path class="background" aria-hidden="true" d="M0,0h61.029296875v11h-61.029296875Z" pointer-events="none" opacity="1"/><g><g class="mark-symbol role-legend-symbol" pointer-events="none"><path transform="translate(6,6)" d="M5,0A5,5,0,1,1,-5,0A5,5,0,1,1,5,0" fill="#8c6c12" stroke-width="1.5" opacity="1"/></g><g class="mark-text role-legend-label" pointer-events="none"><text text-anchor="start" transform="translate(16,9)" font-family="sans-serif" font-size="10px" fill="#000" opacity="1">Coal</text></g></g><path class="foreground" aria-hidden="true" d="" pointer-events="none" display="none"/></g><g transform="translate(0,13)"><path class="background" aria-hidden="true" d="M0,0h61.029296875v11h-61.029296875Z" pointer-events="none" opacity="1"/><g><g class="mark-symbol role-legend-symbol" pointer-events="none"><path transform="translate(6,6)" d="M5,0A5,5,0,1,1,-5,0A5,5,0,1,1,5,0" fill="#f3892c" stroke-width="1.5" opacity="1"/></g><g class="mark-text role-legend-label" pointer-events="none"><text text-anchor="start" transform="translate(16,9)" font-family="sans-serif" font-size="10px" fill="#000" opacity="1">Gas</text></g></g><path class="foreground" aria-hidden="true" d="" pointer-events="none" display="none"/></g><g transform="translate(0,26)"><path class="background" aria-hidden="true" d="M0,0h61.029296875v11h-61.029296875Z" pointer-events="none" opacity="1"/><g><g class="mark-symbol role-legend-symbol" pointer-events="none"><path transform="translate(6,6)" d="M5,0A5,5,0,1,1,-5,0A5,5,0,1,1,5,0" fill="#feb99a" stroke-width="1.5" opacity="1"/></g><g class="mark-text role-legend-label" pointer-events="none"><text text-anchor="start" transform="translate(16,9)" font-family="sans-serif" font-size="10px" fill="#000" opacity="1">Nuclear</text></g></g><path class="foreground" aria-hidden="true" d="" pointer-events="none" display="none"/></g><g transform="translate(0,39)"><path class="background" aria-hidden="true" d="M0,0h61.029296875v11h-61.029296875Z" pointer-events="none" opacity="1"/><g><g class="mark-symbol role-legend-symbol" pointer-events="none"><path transform="translate(6,6)" d="M5,0A5,5,0,1,1,-5,0A5,5,0,1,1,5,0" fill="#134226" stroke-width="1.5" opacity="1"/></g><g class="mark-text role-legend-label" pointer-events="none"><text text-anchor="start" transform="translate(16,9)" font-family="sans-serif" font-size="10px" fill="#000" opacity="1">Bioenergy</text></g></g><path class="foreground" aria-hidden="true" d="" pointer-events="none" display="none"/></g><g transform="translate(0,52)"><path class="background" aria-hidden="true" d="M0,0h61.029296875v11h-61.029296875Z" pointer-events="none" opacity="1"/><g><g class="mark-symbol role-legend-symbol" pointer-events="none"><path transform="translate(6,6)" d="M5,0A5,5,0,1,1,-5,0A5,5,0,1,1,5,0" fill="#8fc6fa" stroke-width="1.5" opacity="1"/></g><g class="mark-text role-legend-label" pointer-events="none"><text text-anchor="start" transform="translate(16,9)" font-family="sans-serif" font-size="10px" fill="#000" opacity="1">Hydro</text></g></g><path class="foreground" aria-hidden="true" d="" pointer-events="none" display="none"/></g><g transform="translate(0,65)"><path class="background" aria-hidden="true" d="M0,0h61.029296875v11h-61.029296875Z" pointer-events="none" opacity="1"/><g><g class="mark-symbol role-legend-symbol" pointer-events="none"><path transform="translate(6,6)" d="M5,0A5,5,0,1,1,-5,0A5,5,0,1,1,5,0" fill="#1D435E" stroke-width="1.5" opacity="1"/></g><g class="mark-text role-legend-label" pointer-events="none"><text text-anchor="start" transform="translate(16,9)" font-family="sans-serif" font-size="10px" fill="#000" opacity="1">Solar</text></g></g><path class="foreground" aria-hidden="true" d="" pointer-events="none" display="none"/></g><g transform="translate(0,78)"><path class="background" aria-hidden="true" d="M0,0h61.029296875v11h-61.029296875Z" pointer-events="none" opacity="1"/><g><g class="mark-symbol role-legend-symbol" pointer-events="none"><path transform="translate(6,6)" d="M5,0A5,5,0,1,1,-5,0A5,5,0,1,1,5,0" fill="#BBDFC5" stroke-width="1.5" opacity="1"/></g><g class="mark-text role-legend-label" pointer-events="none"><text text-anchor="start" transform="translate(16,9)" font-family="sans-serif" font-size="10px" fill="#000" opacity="1">Wind</text></g></g><path class="foreground" aria-hidden="true" d="" pointer-events="none" display="none"/></g><g transform="translate(0,91)"><path class="background" aria-hidden="true" d="M0,0h61.029296875v11h-61.029296875Z" pointer-events="none" opacity="1"/><g><g class="mark-symbol role-legend-symbol" pointer-events="none"><path transform="translate(6,6)" d="M5,0A5,5,0,1,1,-5,0A5,5,0,1,1,5,0" fill="#808080" stroke-width="1.5" opacity="1"/></g><g class="mark-text role-legend-label" pointer-events="none"><text text-anchor="start" transform="translate(16,9)" font-family="sans-serif" font-size="10px" fill="#000" opacity="1">Other</text></g></g><path class="foreground" aria-hidden="true" d="" pointer-events="none" display="none"/></g></g></g><path class="foreground" aria-hidden="true" d="" pointer-events="none" display="none"/></g></g></g><path class="foreground" aria-hidden="true" d="" pointer-events="none" display="none"/></g></g><g class="mark-group role-title"><g transform="translate(0,-52.38851537417402)"><path class="background" aria-hidden="true" d="M0,0h0v0h0Z" pointer-events="none"/><g><g class="mark-text role-title-text" role="graphics-symbol" aria-roledescription="title" aria-label="Title text 'Share of Energy Sources in the EU (2021)'" pointer-events="none"><text text-anchor="start" transform="translate(0,13)" font-family="sans-serif" font-size="17px" font-weight="bold" fill="#000" opacity="1">Share of Energy Sources in the EU (2021)</text></g></g><path class="foreground" aria-hidden="true" d="" pointer-events="none" display="none"/></g></g></g><path class="foreground" aria-hidden="true" d="" display="none"/></g></g></g></svg>