<svg xmlns="http://www.w3.org/2000/svg" xmlns:xlink="http://www.w3.org/1999/xlink" version="1.1" class="marks" width="681" height="280" viewBox="0 0 681 280"><rect width="681" height="280" fill="white"/><g fill="none" stroke-miterlimit="10" transform="translate(53,43)"><g class="mark-group role-frame root" role="graphics-object" aria-roledescription="group mark container"><g transform="translate(0,0)"><path class="background" aria-hidden="true" d="M0.5,0.5h500v200h-500Z" stroke="#ddd"/><g><g class="mark-group role-axis" aria-hidden="true"><g transform="translate(0.5,200.5)"><path class="background" aria-hidden="true" d="M0,0h0v0h0Z" pointer-events="none"/><g><g class="mark-rule role-axis-grid" pointer-events="none"><line transform="translate(133,-200)" x2="0" y2="200" stroke="#ddd" stroke-width="1" opacity="1"/><line transform="translate(268,-200)" x2="0" y2="200" stroke="#ddd" stroke-width="1" opacity="1"/><line transform="translate(402,-200)" x2="0" y2="200" stroke="#ddd" stroke-width="1" opacity="1"/></g></g><path class="foreground" aria-hidden="true" d="" pointer-events="none" display="none"/></g></g><g class="mark-group role-axis" aria-hidden="true"><g transform="translate(0.5,0.5)"><path class="background" aria-hidden="true" d="M0,0h0v0h0Z" pointer-events="none"/><g><g class="mark-rule role-axis-grid" pointer-events="none"><line transform="translate(0,200)" x2="500" y2="0" stroke="#ddd" stroke-width="1" opacity="1"/><line transform="translate(0,171)" x2="500" y2="0" stroke="#ddd" stroke-width="1" opacity="1"/><line transform="translate(0,143)" x2="500" y2="0" stroke="#ddd" stroke-width="1" opacity="1"/><line transform="translate(0,114)" x2="500" y2="0" stroke="#ddd" stroke-width="1" opacity="1"/><line transform="translate(0,86)" x2="500" y2="0" stroke="#ddd" stroke-width="1" opacity="1"/><line transform="translate(0,57)" x2="500" y2="0" stroke="#ddd" stroke-width="1" opacity="1"/><line transform="translate(0,29)" x2="500" y2="0" stroke="#ddd" stroke-width="1" opacity="1"/><line transform="translate(0,0)" x2="500" y2="0" stroke="#ddd" stroke-width="1" opacity="1"/></g></g><path class="foreground" aria-hidden="true" d="" pointer-events="none" display="none"/></g></g><g class="mark-group role-axis" role="graphics-symbol" aria-roledescription="axis" aria-label="X-axis titled 'Time' for a time scale with values from Monday, 04 January 2021, 12:00:00 AM to Monday, 23 September 2024, 12:00:00 AM"><g transform="translate(0.5,200.5)"><path class="background" aria-hidden="true" d="M0,0h0v0h0Z" pointer-events="none"/><g><g class="mark-rule role-axis-tick" pointer-events="none"><line transform="translate(133,0)" x2="0" y2="5" stroke="#888" stroke-width="1" opacity="1"/><line transform="translate(268,0)" x2="0" y2="5" stroke="#888" stroke-width="1" opacity="1"/><line transform="translate(402,0)" x2="0" y2="5" stroke="#888" stroke-width="1" opacity="1"/></g><g class="mark-text role-axis-label" pointer-events="none"><text text-anchor="middle" transform="translate(133.28833113436227,15)" font-family="sans-serif" font-size="10px" fill="#000" opacity="1">2022</text><text text-anchor="middle" transform="translate(267.6812616980148,15)" font-family="sans-serif" font-size="10px" fill="#000" opacity="1">2023</text><text text-anchor="middle" transform="translate(402.07419226166735,15)" font-family="sans-serif" font-size="10px" fill="#000" opacity="1">2024</text></g><g class="mark-rule role-axis-domain" pointer-events="none"><line transform="translate(0,0)" x2="500" y2="0" stroke="#888" stroke-width="1" opacity="1"/></g><g class="mark-text role-axis-title" pointer-events="none"><text text-anchor="middle" transform="translate(250,30)" font-family="sans-serif" font-size="11px" font-weight="bold" fill="#000" opacity="1">Time</text></g></g><path class="foreground" aria-hidden="true" d="" pointer-events="none" display="none"/></g></g><g class="mark-group role-axis" role="graphics-symbol" aria-roledescription="axis" aria-label="Y-axis titled 'Million cubic meters per week' for a linear scale with values from 0 to 3,500"><g transform="translate(0.5,0.5)"><path class="background" aria-hidden="true" d="M0,0h0v0h0Z" pointer-events="none"/><g><g class="mark-rule role-axis-tick" pointer-events="none"><line transform="translate(0,200)" x2="-5" y2="0" stroke="#888" stroke-width="1" opacity="1"/><line transform="translate(0,171)" x2="-5" y2="0" stroke="#888" stroke-width="1" opacity="1"/><line transform="translate(0,143)" x2="-5" y2="0" stroke="#888" stroke-width="1" opacity="1"/><line transform="translate(0,114)" x2="-5" y2="0" stroke="#888" stroke-width="1" opacity="1"/><line transform="translate(0,86)" x2="-5" y2="0" stroke="#888" stroke-width="1" opacity="1"/><line transform="translate(0,57)" x2="-5" y2="0" stroke="#888" stroke-width="1" opacity="1"/><line transform="translate(0,29)" x2="-5" y2="0" stroke="#888" stroke-width="1" opacity="1"/><line transform="translate(0,0)" x2="-5" y2="0" stroke="#888" stroke-width="1" opacity="1"/></g><g class="mark-text role-axis-label" pointer-events="none"><text text-anchor="end" transform="translate(-7,203)" font-family="sans-serif" font-size="10px" fill="#000" opacity="1">0</text><text text-anchor="end" transform="translate(-7,174.42857142857144)" font-family="sans-serif" font-size="10px" fill="#000" opacity="1">500</text><text text-anchor="end" transform="translate(-7,145.85714285714286)" font-family="sans-serif" font-size="10px" fill="#000" opacity="1">1,000</text><text text-anchor="end" transform="translate(-7,117.28571428571428)" font-family="sans-serif" font-size="10px" fill="#000" opacity="1">1,500</text><text text-anchor="end" transform="translate(-7,88.71428571428572)" font-family="sans-serif" font-size="10px" fill="#000" opacity="1">2,000</text><text text-anchor="end" transform="translate(-7,60.14285714285714)" font-family="sans-serif" font-size="10px" fill="#000" opacity="1">2,500</text><text text-anchor="end" transform="translate(-7,31.57142857142858)" font-family="sans-serif" font-size="10px" fill="#000" opacity="1">3,000</text><text text-anchor="end" transform="translate(-7,3)" font-family="sans-serif" font-size="10px" fill="#000" opacity="1">3,500</text></g><g class="mark-rule role-axis-domain" pointer-events="none"><line transform="translate(0,200)" x2="0" y2="-200" stroke="#888" stroke-width="1" opacity="1"/></g><g class="mark-text role-axis-title" pointer-events="none"><text text-anchor="middle" transform="translate(-36.0244140625,100) rotate(-90) translate(0,-2)" font-family="sans-serif" font-size="11px" font-weight="bold" fill="#000" opacity="1">Million cubic meters per week</text></g></g><path class="foreground" aria-hidden="true" d="" pointer-events="none" display="none"/></g></g><g class="mark-rule role-mark layer_0_marks" role="graphics-object" aria-roledescription="rule mark container"><line aria-label="Time: Sep 25, 2022" role="graphics-symbol" aria-roledescription="rule mark" transform="translate(231.87383019852106,0)" x2="0" y2="200" stroke="#f3892c"/></g><g class="mark-rule role-mark layer_1_marks" role="graphics-object" aria-roledescription="rule mark container"><line aria-label="Time: Jun 05, 2022" role="graphics-symbol" aria-roledescription="rule mark" transform="translate(190.63545150501673,0)" x2="0" y2="200" stroke="#f3892c"/></g><g class="mark-group role-scope layer_2_pathgroup" role="graphics-object" aria-roledescription="group mark container"><g transform="translate(0,0)"><path class="background" aria-hidden="true" d="M0,0h500v200h-500Z"/><g><g class="mark-area role-mark layer_2_marks" role="graphics-object" aria-roledescription="area mark container"><path aria-label="Time: Jan 04, 2021; Million cubic meters per week: 1193; Pipeline: Nord Stream" role="graphics-symbol" aria-roledescription="area mark" d="M0,19.771L2.577,33.829L5.155,30.8L7.732,30.114L10.31,29.886L12.887,28.114L15.464,26.914L18.042,43.029L20.619,51.6L23.197,29.486L25.759,31.086L28.336,25.371L30.913,24.914L33.491,28.343L36.068,32.8L38.646,29.943L41.223,27.143L43.8,28.286L46.378,27.314L48.955,26.343L51.533,26.914L54.11,25.029L56.687,25.771L59.265,30.8L61.842,25.886L64.42,41.143L66.997,32.457L69.574,51.2L72.152,88.629L74.729,69.543L77.307,34L79.884,47.829L82.461,55.143L85.039,52.286L87.616,37.771L90.194,47.143L92.771,51.771L95.348,42.057L97.926,37.086L100.503,58.686L103.081,59.6L105.658,58.857L108.235,61.143L110.813,63.657L113.406,77.714L115.983,56.914L118.56,47.143L121.138,46.743L123.715,47.543L126.293,47.429L128.87,49.486L131.447,65.486L134.025,76.914L136.602,105.543L139.18,102.686L141.757,104.057L144.334,93.657L146.912,77.429L149.489,86.171L152.067,93.2L154.644,74.857L157.221,55.486L159.783,54.8L162.361,75.943L164.938,72.571L167.516,64.571L170.093,71.6L172.67,84.457L175.248,92.8L177.825,94.743L180.403,74.571L182.98,89.314L185.557,101.086L188.135,105.771L190.712,168.171L193.29,114.971L195.867,139.143L198.444,154.743L201.022,143.486L203.599,142.4L206.177,166L208.754,150.4L211.331,149.143L213.909,155.2L216.486,154.743L219.064,153.257L221.641,152.971L224.218,164.057L224.218,167.6L221.641,166.457L219.064,166.743L216.486,168.229L213.909,168.571L211.331,166.343L208.754,165.886L206.177,166.343L203.599,169.714L201.022,170.8L198.444,182.057L195.867,172.8L193.29,174.457L190.712,174.686L188.135,173.829L185.557,169.314L182.98,157.543L180.403,142.8L177.825,162.343L175.248,160.914L172.67,152.686L170.093,139.771L167.516,132.8L164.938,136.286L162.361,135.657L159.783,122.971L157.221,123.657L154.644,142.114L152.067,158.4L149.489,153.429L146.912,145.086L144.334,157.714L141.757,167.429L139.18,165.886L136.602,169.143L134.025,143.943L131.447,133.371L128.87,117.657L126.293,115.657L123.715,115.771L121.138,114.857L118.56,115.314L115.983,125.086L113.406,145.943L110.813,132.229L108.235,129.314L105.658,127.086L103.081,127.829L100.503,126.914L97.926,105.257L95.348,110.286L92.771,119.943L90.194,115.371L87.616,105.943L85.039,119.943L82.461,122.686L79.884,115.771L77.307,101.029L74.729,97.486L72.152,97.257L69.574,116.857L66.997,97.543L64.42,104.514L61.842,93.771L59.265,98.743L56.687,93.943L54.11,93.2L51.533,95.086L48.955,94.514L46.378,95.543L43.8,96.514L41.223,95.486L38.646,97.943L36.068,101.371L33.491,96.971L30.913,93.486L28.336,93.543L25.759,99.257L23.197,97.657L20.619,119.771L18.042,111.143L15.464,95.086L12.887,96.629L10.31,98.171L7.732,98.286L5.155,98.971L2.577,101.943L0,87.943Z" fill="#8c6c12"/></g></g><path class="foreground" aria-hidden="true" d="" display="none"/></g><g transform="translate(0,0)"><path class="background" aria-hidden="true" d="M0,0h500v200h-500Z"/><g><g class="mark-area role-mark layer_2_marks" role="graphics-object" aria-roledescription="area mark container"><path aria-label="Time: Jan 04, 2021; Million cubic meters per week: 1046; Pipeline: Ukraine Gas Transit" role="graphics-symbol" aria-roledescription="area mark" d="M0,96.229L2.577,111.314L5.155,111.657L7.732,111.771L10.31,110.571L12.887,108.4L15.464,107.314L18.042,124.8L20.619,131.429L23.197,111.143L25.759,112.571L28.336,107.829L30.913,108.286L33.491,109.143L36.068,114.686L38.646,111.086L41.223,108.8L43.8,108.686L46.378,107.143L48.955,107.429L51.533,107.143L54.11,107.2L56.687,107.543L59.265,111.943L61.842,108.686L64.42,108.514L66.997,111.486L69.574,132.286L72.152,112.629L74.729,112.686L77.307,116.057L79.884,130.171L82.461,137.086L85.039,134.114L87.616,121.943L90.194,129.2L92.771,131.371L95.348,123.257L97.926,118.8L100.503,138.743L103.081,143.771L105.658,143.314L108.235,145.486L110.813,148.057L113.406,157.886L115.983,138.686L118.56,130.514L121.138,129.886L123.715,133.486L126.293,133.943L128.87,136.114L131.447,150.857L134.025,158.571L136.602,180.4L139.18,180.514L141.757,183.086L144.334,173.886L146.912,161.429L149.489,169.143L152.067,174.229L154.644,159.486L157.221,141.2L159.783,139.714L162.361,152.057L164.938,152.114L167.516,147.486L170.093,152.857L172.67,165.771L175.248,173.143L177.825,172.743L180.403,156.8L182.98,170.629L185.557,179.486L188.135,182.857L190.712,183.771L193.29,183.714L195.867,183.943L198.444,184L201.022,183.886L203.599,184.343L206.177,184.457L208.754,184.343L211.331,184.686L213.909,185.086L216.486,184.971L219.064,184.8L221.641,184.571L224.218,184.8L226.796,184.571L229.373,184.686L231.951,184.686L234.528,184.457L237.105,184.686L239.683,184.4L242.26,185.486L244.838,188.057L247.43,187.886L250.008,186.343L252.585,181.371L255.162,181.657L257.74,182.057L260.317,181.257L262.895,179.886L265.472,183.714L268.049,184.229L270.627,186.457L273.204,187.6L275.782,190.457L278.359,191.943L280.936,190.629L283.514,189.714L286.091,187.657L288.669,185.657L291.246,185.143L293.808,185.143L296.386,185.143L298.963,185.371L301.54,185.257L304.118,185.6L306.695,185.486L309.272,185.086L311.85,185.486L314.427,185.2L317.005,185.2L319.582,184.571L322.159,184.629L324.737,186.857L327.314,185.771L329.892,189.657L332.469,184.686L335.046,184.514L337.624,184.914L340.201,185.6L342.779,186.286L345.356,187.029L347.933,186.571L350.511,185.486L353.088,185.829L355.666,185.257L358.243,185.486L360.82,186.914L363.398,186.229L365.975,185.886L368.553,185.314L371.13,187.429L373.707,185.257L376.285,184.4L378.862,184.4L381.455,185.486L384.032,183.886L386.61,183.429L389.187,180.686L391.765,176.4L394.342,175.771L396.919,176.686L399.497,176.914L402.074,177.6L404.652,182.229L407.229,181.257L409.806,181.314L412.384,181.657L414.961,182L417.539,182.457L420.116,182.229L422.693,184.8L425.271,182.343L427.833,183.2L430.41,183.2L432.988,183.029L435.565,183.086L438.142,183.029L440.72,183.086L443.297,183.257L445.875,182.457L448.452,182.286L451.029,182.171L453.607,182.4L456.184,182.4L458.762,180.571L461.339,181.029L463.916,181.086L466.494,180.8L469.071,180.4L471.649,182.571L474.226,182.343L476.803,182L479.381,181.714L481.958,182.514L484.536,183.429L487.113,183.143L489.69,183.257L492.268,182.114L494.845,180.571L497.423,179.657L500,180.229L500,200L497.423,200L494.845,200L492.268,200L489.69,200L487.113,200L484.536,200L481.958,200L479.381,200L476.803,200L474.226,200L471.649,200L469.071,200L466.494,200L463.916,200L461.339,200L458.762,200L456.184,200L453.607,200L451.029,200L448.452,200L445.875,200L443.297,200L440.72,200L438.142,200L435.565,200L432.988,200L430.41,200L427.833,200L425.271,200L422.693,200L420.116,200L417.539,200L414.961,200L412.384,200L409.806,200L407.229,200L404.652,200L402.074,200L399.497,200L396.919,200L394.342,200L391.765,200L389.187,200L386.61,200L384.032,200L381.455,200L378.862,200L376.285,200L373.707,200L371.13,200L368.553,200L365.975,200L363.398,200L360.82,200L358.243,200L355.666,200L353.088,200L350.511,200L347.933,200L345.356,200L342.779,200L340.201,200L337.624,200L335.046,200L332.469,200L329.892,200L327.314,200L324.737,200L322.159,200L319.582,200L317.005,200L314.427,200L311.85,200L309.272,200L306.695,200L304.118,200L301.54,200L298.963,200L296.386,200L293.808,200L291.246,200L288.669,200L286.091,200L283.514,200L280.936,200L278.359,200L275.782,200L273.204,200L270.627,200L268.049,200L265.472,200L262.895,200L260.317,200L257.74,200L255.162,200L252.585,200L250.008,200L247.43,200L244.838,200L242.26,200L239.683,200L237.105,200L234.528,200L231.951,200L229.373,200L226.796,200L224.218,200L221.641,200L219.064,200L216.486,200L213.909,200L211.331,200L208.754,200L206.177,200L203.599,200L201.022,200L198.444,200L195.867,200L193.29,200L190.712,200L188.135,200L185.557,200L182.98,199.371L180.403,194.8L177.825,198.229L175.248,192.914L172.67,192.229L170.093,190.171L167.516,187.886L164.938,190.743L162.361,189.029L159.783,179.371L157.221,181.029L154.644,189.143L152.067,190.857L149.489,191.029L146.912,191.086L144.334,198L141.757,198L139.18,198L136.602,196.686L134.025,192.514L131.447,190.343L128.87,181.143L126.293,178.229L123.715,178.343L121.138,178.171L118.56,179.086L115.983,185.086L113.406,193.429L110.813,185.314L108.235,183.886L105.658,182.286L103.081,183.257L100.503,176.4L97.926,157.257L95.348,160.971L92.771,166.743L90.194,166.171L87.616,163.829L85.039,176.171L82.461,179.543L79.884,173.143L77.307,159.2L74.729,156L72.152,155.943L69.574,175.657L66.997,156.171L64.42,156.114L61.842,156.171L59.265,159.943L56.687,156.114L54.11,156L51.533,155.943L48.955,156L46.378,155.943L43.8,156L41.223,156.057L38.646,158.914L36.068,161.771L33.491,156.057L30.913,156.229L28.336,156L25.759,157.371L23.197,156.571L20.619,162.629L18.042,160.286L15.464,154.457L12.887,154.571L10.31,154.057L7.732,154.114L5.155,155.257L2.577,156.057L0,156Z" fill="#f3892c"/></g></g><path class="foreground" aria-hidden="true" d="" display="none"/></g><g transform="translate(0,0)"><path class="background" aria-hidden="true" d="M0,0h500v200h-500Z"/><g><g class="mark-area role-mark layer_2_marks" role="graphics-object" aria-roledescription="area mark container"><path aria-label="Time: Jan 04, 2021; Million cubic meters per week: 770; Pipeline: Yamal" role="graphics-symbol" aria-roledescription="area mark" d="M0,156L2.577,156.057L5.155,155.257L7.732,154.114L10.31,154.057L12.887,154.571L15.464,154.457L18.042,160.286L20.619,162.629L23.197,156.571L25.759,157.371L28.336,156L30.913,156.229L33.491,156.057L36.068,161.771L38.646,158.914L41.223,156.057L43.8,156L46.378,155.943L48.955,156L51.533,155.943L54.11,156L56.687,156.114L59.265,159.943L61.842,156.171L64.42,156.114L66.997,156.171L69.574,175.657L72.152,155.943L74.729,156L77.307,159.2L79.884,173.143L82.461,179.543L85.039,176.171L87.616,163.829L90.194,166.171L92.771,166.743L95.348,160.971L97.926,157.257L100.503,176.4L103.081,183.257L105.658,182.286L108.235,183.886L110.813,185.314L113.406,193.429L115.983,185.086L118.56,179.086L121.138,178.171L123.715,178.343L126.293,178.229L128.87,181.143L131.447,190.343L134.025,192.514L136.602,196.686L139.18,198L141.757,198L144.334,198L146.912,191.086L149.489,191.029L152.067,190.857L154.644,189.143L157.221,181.029L159.783,179.371L162.361,189.029L164.938,190.743L167.516,187.886L170.093,190.171L172.67,192.229L175.248,192.914L177.825,198.229L180.403,194.8L182.98,199.371L182.98,200L180.403,200L177.825,200L175.248,200L172.67,200L170.093,200L167.516,200L164.938,200L162.361,200L159.783,200L157.221,200L154.644,200L152.067,200L149.489,200L146.912,200L144.334,200L141.757,200L139.18,200L136.602,200L134.025,200L131.447,200L128.87,200L126.293,200L123.715,200L121.138,200L118.56,200L115.983,200L113.406,200L110.813,200L108.235,200L105.658,200L103.081,200L100.503,200L97.926,200L95.348,200L92.771,200L90.194,200L87.616,200L85.039,200L82.461,200L79.884,200L77.307,200L74.729,200L72.152,200L69.574,200L66.997,200L64.42,200L61.842,200L59.265,200L56.687,200L54.11,200L51.533,200L48.955,200L46.378,200L43.8,200L41.223,200L38.646,200L36.068,200L33.491,200L30.913,200L28.336,200L25.759,200L23.197,200L20.619,200L18.042,200L15.464,200L12.887,200L10.31,200L7.732,200L5.155,200L2.577,200L0,200Z" fill="#feb99a"/></g></g><path class="foreground" aria-hidden="true" d="" display="none"/></g><g transform="translate(0,0)"><path class="background" aria-hidden="true" d="M0,0h500v200h-500Z"/><g><g class="mark-area role-mark layer_2_marks" role="graphics-object" aria-roledescription="area mark container"><path aria-label="Time: Jan 04, 2021; Million cubic meters per week: 145; Pipeline: TurkStream" role="graphics-symbol" aria-roledescription="area mark" d="M0,87.943L2.577,101.943L5.155,98.971L7.732,98.286L10.31,98.171L12.887,96.629L15.464,95.086L18.042,111.143L20.619,119.771L23.197,97.657L25.759,99.257L28.336,93.543L30.913,93.486L33.491,96.971L36.068,101.371L38.646,97.943L41.223,95.486L43.8,96.514L46.378,95.543L48.955,94.514L51.533,95.086L54.11,93.2L56.687,93.943L59.265,98.743L61.842,93.771L64.42,104.514L66.997,97.543L69.574,116.857L72.152,97.257L74.729,97.486L77.307,101.029L79.884,115.771L82.461,122.686L85.039,119.943L87.616,105.943L90.194,115.371L92.771,119.943L95.348,110.286L97.926,105.257L100.503,126.914L103.081,127.829L105.658,127.086L108.235,129.314L110.813,132.229L113.406,145.943L115.983,125.086L118.56,115.314L121.138,114.857L123.715,115.771L126.293,115.657L128.87,117.657L131.447,133.371L134.025,143.943L136.602,169.143L139.18,165.886L141.757,167.429L144.334,157.714L146.912,145.086L149.489,153.429L152.067,158.4L154.644,142.114L157.221,123.657L159.783,122.971L162.361,135.657L164.938,136.286L167.516,132.8L170.093,139.771L172.67,152.686L175.248,160.914L177.825,162.343L180.403,142.8L182.98,157.543L185.557,169.314L188.135,173.829L190.712,174.686L193.29,174.457L195.867,172.8L198.444,182.057L201.022,170.8L203.599,169.714L206.177,166.343L208.754,165.886L211.331,166.343L213.909,168.571L216.486,168.229L219.064,166.743L221.641,166.457L224.218,167.6L226.796,168.514L229.373,167.943L231.951,169.657L234.528,171.829L237.105,172.457L239.683,170.4L242.26,171.371L244.838,175.2L247.43,177.257L250.008,174.286L252.585,169.143L255.162,168.971L257.74,165.486L260.317,162.514L262.895,162.457L265.472,170.571L268.049,172.686L270.627,176.286L273.204,176.686L275.782,180.343L278.359,180.914L280.936,178L283.514,173.6L286.091,174.171L288.669,175.486L291.246,172.229L293.808,173.657L296.386,173.314L298.963,174.743L301.54,174.229L304.118,170.514L306.695,170.229L309.272,169.2L311.85,173.6L314.427,174.114L317.005,174.114L319.582,174.914L322.159,176.743L324.737,178.343L327.314,185.714L329.892,176.571L332.469,170.057L335.046,169.6L337.624,167.886L340.201,167.086L342.779,168L345.356,168.114L347.933,166.629L350.511,166.457L353.088,166.686L355.666,164.514L358.243,166.057L360.82,168.114L363.398,166.4L365.975,167.143L368.553,164.971L371.13,171.886L373.707,166.743L376.285,163.771L378.862,164.286L381.455,169.257L384.032,167.371L386.61,166.286L389.187,162.4L391.765,158.571L394.342,156.686L396.919,158.743L399.497,159.943L402.074,161.943L404.652,167.314L407.229,165.429L409.806,165.429L412.384,165.086L414.961,165.029L417.539,165.371L420.116,165.314L422.693,167.6L425.271,165.486L427.833,164.857L430.41,164.743L432.988,163.2L435.565,164.914L438.142,167.943L440.72,168.343L443.297,164.286L445.875,165.314L448.452,167.143L451.029,165.371L453.607,163.257L456.184,161.143L458.762,159.886L461.339,177.314L463.916,162.914L466.494,160.4L469.071,160.229L471.649,162.914L474.226,162.857L476.803,162.114L479.381,162.114L481.958,162.971L484.536,165.029L487.113,164.343L489.69,163.829L492.268,162.571L494.845,161.429L497.423,160.457L500,160.514L500,180.229L497.423,179.657L494.845,180.571L492.268,182.114L489.69,183.257L487.113,183.143L484.536,183.429L481.958,182.514L479.381,181.714L476.803,182L474.226,182.343L471.649,182.571L469.071,180.4L466.494,180.8L463.916,181.086L461.339,181.029L458.762,180.571L456.184,182.4L453.607,182.4L451.029,182.171L448.452,182.286L445.875,182.457L443.297,183.257L440.72,183.086L438.142,183.029L435.565,183.086L432.988,183.029L430.41,183.2L427.833,183.2L425.271,182.343L422.693,184.8L420.116,182.229L417.539,182.457L414.961,182L412.384,181.657L409.806,181.314L407.229,181.257L404.652,182.229L402.074,177.6L399.497,176.914L396.919,176.686L394.342,175.771L391.765,176.4L389.187,180.686L386.61,183.429L384.032,183.886L381.455,185.486L378.862,184.4L376.285,184.4L373.707,185.257L371.13,187.429L368.553,185.314L365.975,185.886L363.398,186.229L360.82,186.914L358.243,185.486L355.666,185.257L353.088,185.829L350.511,185.486L347.933,186.571L345.356,187.029L342.779,186.286L340.201,185.6L337.624,184.914L335.046,184.514L332.469,184.686L329.892,189.657L327.314,185.771L324.737,186.857L322.159,184.629L319.582,184.571L317.005,185.2L314.427,185.2L311.85,185.486L309.272,185.086L306.695,185.486L304.118,185.6L301.54,185.257L298.963,185.371L296.386,185.143L293.808,185.143L291.246,185.143L288.669,185.657L286.091,187.657L283.514,189.714L280.936,190.629L278.359,191.943L275.782,190.457L273.204,187.6L270.627,186.457L268.049,184.229L265.472,183.714L262.895,179.886L260.317,181.257L257.74,182.057L255.162,181.657L252.585,181.371L250.008,186.343L247.43,187.886L244.838,188.057L242.26,185.486L239.683,184.4L237.105,184.686L234.528,184.457L231.951,184.686L229.373,184.686L226.796,184.571L224.218,184.8L221.641,184.571L219.064,184.8L216.486,184.971L213.909,185.086L211.331,184.686L208.754,184.343L206.177,184.457L203.599,184.343L201.022,183.886L198.444,184L195.867,183.943L193.29,183.714L190.712,183.771L188.135,182.857L185.557,179.486L182.98,170.629L180.403,156.8L177.825,172.743L175.248,173.143L172.67,165.771L170.093,152.857L167.516,147.486L164.938,152.114L162.361,152.057L159.783,139.714L157.221,141.2L154.644,159.486L152.067,174.229L149.489,169.143L146.912,161.429L144.334,173.886L141.757,183.086L139.18,180.514L136.602,180.4L134.025,158.571L131.447,150.857L128.87,136.114L126.293,133.943L123.715,133.486L121.138,129.886L118.56,130.514L115.983,138.686L113.406,157.886L110.813,148.057L108.235,145.486L105.658,143.314L103.081,143.771L100.503,138.743L97.926,118.8L95.348,123.257L92.771,131.371L90.194,129.2L87.616,121.943L85.039,134.114L82.461,137.086L79.884,130.171L77.307,116.057L74.729,112.686L72.152,112.629L69.574,132.286L66.997,111.486L64.42,108.514L61.842,108.686L59.265,111.943L56.687,107.543L54.11,107.2L51.533,107.143L48.955,107.429L46.378,107.143L43.8,108.686L41.223,108.8L38.646,111.086L36.068,114.686L33.491,109.143L30.913,108.286L28.336,107.829L25.759,112.571L23.197,111.143L20.619,131.429L18.042,124.8L15.464,107.314L12.887,108.4L10.31,110.571L7.732,111.771L5.155,111.657L2.577,111.314L0,96.229Z" fill="#be7b14"/></g></g><path class="foreground" aria-hidden="true" d="" display="none"/></g></g><g class="mark-text role-mark layer_3_marks" role="graphics-object" aria-roledescription="text mark container"><text aria-label="Time: Sep 25, 2022; label: Nord Stream pipeline" role="graphics-symbol" aria-roledescription="text mark" text-anchor="start" transform="translate(236.87383019852106,98)" font-family="sans-serif" font-size="11px" fill="black">Nord Stream pipeline</text></g><g class="mark-text role-mark layer_4_marks" role="graphics-object" aria-roledescription="text mark container"><text aria-label="Time: Sep 25, 2022; label: blown up" role="graphics-symbol" aria-roledescription="text mark" text-anchor="start" transform="translate(236.87383019852106,108)" font-family="sans-serif" font-size="11px" fill="black">blown up</text></g><g class="mark-text role-mark layer_5_marks" role="graphics-object" aria-roledescription="text mark container"><text aria-label="Time: Jun 05, 2022; label: Russian sanctions" role="graphics-symbol" aria-roledescription="text mark" text-anchor="end" transform="translate(185.63545150501673,28)" font-family="sans-serif" font-size="11px" fill="black">Russian sanctions</text></g><g class="mark-text role-mark layer_6_marks" role="graphics-object" aria-roledescription="text mark container"><text aria-label="Time: Jun 05, 2022; label: implemented" role="graphics-symbol" aria-roledescription="text mark" text-anchor="end" transform="translate(185.63545150501673,38)" font-family="sans-serif" font-size="11px" fill="black">implemented</text></g><g class="mark-group role-legend" role="graphics-symbol" aria-roledescription="legend" aria-label="Symbol legend titled 'Pipeline' for fill color with 4 values: Nord Stream, TurkStream, Ukraine Gas Transit, Yamal"><g transform="translate(518,0)"><path class="background" aria-hidden="true" d="M0,0h105v66h-105Z" pointer-events="none"/><g><g class="mark-group role-legend-entry"><g transform="translate(0,16)"><path class="background" aria-hidden="true" d="M0,0h0v0h0Z" pointer-events="none"/><g><g class="mark-group role-scope" role="graphics-object" aria-roledescription="group mark container"><g transform="translate(0,0)"><path class="background" aria-hidden="true" d="M0,0h104.5498046875v11h-104.5498046875Z" pointer-events="none" opacity="1"/><g><g class="mark-symbol role-legend-symbol" pointer-events="none"><path transform="translate(6,6)" d="M5,0A5,5,0,1,1,-5,0A5,5,0,1,1,5,0" fill="#8c6c12" stroke-width="1.5" opacity="1"/></g><g class="mark-text role-legend-label" pointer-events="none"><text text-anchor="start" transform="translate(16,9)" font-family="sans-serif" font-size="10px" fill="#000" opacity="1">Nord Stream</text></g></g><path class="foreground" aria-hidden="true" d="" pointer-events="none" display="none"/></g><g transform="translate(0,13)"><path class="background" aria-hidden="true" d="M0,0h104.5498046875v11h-104.5498046875Z" pointer-events="none" opacity="1"/><g><g class="mark-symbol role-legend-symbol" pointer-events="none"><path transform="translate(6,6)" d="M5,0A5,5,0,1,1,-5,0A5,5,0,1,1,5,0" fill="#be7b14" stroke-width="1.5" opacity="1"/></g><g class="mark-text role-legend-label" pointer-events="none"><text text-anchor="start" transform="translate(16,9)" font-family="sans-serif" font-size="10px" fill="#000" opacity="1">TurkStream</text></g></g><path class="foreground" aria-hidden="true" d="" pointer-events="none" display="none"/></g><g transform="translate(0,26)"><path class="background" aria-hidden="true" d="M0,0h104.5498046875v11h-104.5498046875Z" pointer-events="none" opacity="1"/><g><g class="mark-symbol role-legend-symbol" pointer-events="none"><path transform="translate(6,6)" d="M5,0A5,5,0,1,1,-5,0A5,5,0,1,1,5,0" fill="#f3892c" stroke-width="1.5" opacity="1"/></g><g class="mark-text role-legend-label" pointer-events="none"><text text-anchor="start" transform="translate(16,9)" font-family="sans-serif" font-size="10px" fill="#000" opacity="1">Ukraine Gas Transit</text></g></g><path class="foreground" aria-hidden="true" d="" pointer-events="none" display="none"/></g><g transform="translate(0,39)"><path class="background" aria-hidden="true" d="M0,0h104.5498046875v11h-104.5498046875Z" pointer-events="none" opacity="1"/><g><g class="mark-symbol role-legend-symbol" pointer-events="none"><path transform="translate(6,6)" d="M5,0A5,5,0,1,1,-5,0A5,5,0,1,1,5,0" fill="#feb99a" stroke-width="1.5" opacity="1"/></g><g class="mark-text role-legend-label" pointer-events="none"><text text-anchor="start" transform="translate(16,9)" font-family="sans-serif" font-size="10px" fill="#000" opacity="1">Yamal</text></g></g><path class="foreground" aria-hidden="true" d="" pointer-events="none" display="none"/></g></g></g><path class="foreground" aria-hidden="true" d="" pointer-events="none" display="none"/></g></g><g class="mark-text role-legend-title" pointer-events="none"><text text-anchor="start" transform="translate(0,9)" font-family="sans-serif" font-size="11px" font-weight="bold" fill="#000" opacity="1">Pipeline</text></g></g><path class="foreground" aria-hidden="true" d="" pointer-events="none" display="none"/></g></g><g class="mark-group role-title"><g transform="translate(-47.0244140625,-37)"><path class="background" aria-hidden="true" d="M0,0h0v0h0Z" pointer-events="none"/><g><g class="mark-text role-title-text" role="graphics-symbol" aria-roledescription="title" aria-label="Title text 'Russian gas exports to the EU by Pipeline (2021-2024)'" pointer-events="none"><text text-anchor="start" transform="translate(0,13)" font-family="sans-serif" font-size="17px" font-weight="bold" fill="#000" opacity="1">Russian gas exports to the EU by Pipeline (2021-2024)</text></g></g><path class="foreground" aria-hidden="true" d="" pointer-events="none" display="none"/></g></g></g><path class="foreground" aria-hidden="true" d="" display="none"/></g></g></g></svg>