<svg xmlns="http://www.w3.org/2000/svg" xmlns:xlink="http://www.w3.org/1999/xlink" version="1.1" class="marks" width="390" height="290" viewBox="0 0 390 290"><rect width="390" height="290" fill="white"/><g fill="none" stroke-miterlimit="10" transform="translate(5,59)"><g class="mark-group role-frame root" role="graphics-object" aria-roledescription="group mark container"><g transform="translate(0,0)"><path class="background" aria-hidden="true" d="M0,0h300v200h-300Z"/><g><g class="mark-arc role-mark layer_0_marks" role="graphics-object" aria-roledescription="arc mark container"><path aria-label="Value: 68.62; Variable: Bioenergy; Order: 4" role="graphics-symbol" aria-roledescription="arc mark" transform="translate(150,100)" d="M-15.183,98.841A100,100,0,0,0,10.256,99.473L5.128,49.736A50,50,0,0,1,-7.592,49.42Z" fill="#134226"/><path aria-label="Value: 163.99; Variable: Coal; Order: 1" role="graphics-symbol" aria-roledescription="arc mark" transform="translate(150,100)" d="M57.27,-81.976A100,100,0,0,0,0,-100L0,-50A50,50,0,0,1,28.635,-40.988Z" fill="#8c6c12"/><path aria-label="Value: 247.47; Variable: Gas; Order: 2" role="graphics-symbol" aria-roledescription="arc mark" transform="translate(150,100)" d="M99.917,-4.076A100,100,0,0,0,57.27,-81.976L28.635,-40.988A50,50,0,0,1,49.958,-2.038Z" fill="#f3892c"/><path aria-label="Value: 243.84; Variable: Hydro; Order: 5" role="graphics-symbol" aria-roledescription="arc mark" transform="translate(150,100)" d="M-87.194,48.962A100,100,0,0,0,-15.183,98.841L-7.592,49.42A50,50,0,0,1,-43.597,24.481Z" fill="#8fc6fa"/><path aria-label="Value: 405.76; Variable: Nuclear; Order: 3" role="graphics-symbol" aria-roledescription="arc mark" transform="translate(150,100)" d="M10.256,99.473A100,100,0,0,0,99.917,-4.076L49.958,-2.038A50,50,0,0,1,5.128,49.736Z" fill="#feb99a"/><path aria-label="Value: 213.95; Variable: Solar; Order: 6" role="graphics-symbol" aria-roledescription="arc mark" transform="translate(150,100)" d="M-95.996,-28.013A100,100,0,0,0,-87.194,48.962L-43.597,24.481A50,50,0,0,1,-47.998,-14.006Z" fill="#1D435E"/><path aria-label="Value: 296.9; Variable: Wind; Order: 7" role="graphics-symbol" aria-roledescription="arc mark" transform="translate(150,100)" d="M-18.182,-98.333A100,100,0,0,0,-95.996,-28.013L-47.998,-14.006A50,50,0,0,1,-9.091,-49.167Z" fill="#BBDFC5"/><path aria-label="Value: 49.17; Variable: Other; Order: 8" role="graphics-symbol" aria-roledescription="arc mark" transform="translate(150,100)" d="M0,-100A100,100,0,0,0,-18.182,-98.333L-9.091,-49.167A50,50,0,0,1,0,-50Z" fill="#808080"/></g><g class="mark-text role-mark layer_1_marks" role="graphics-object" aria-roledescription="text mark container"><text aria-label="Value: 68.62; Variable: Bioenergy; Order: 4; percentage: 4.06%" role="graphics-symbol" aria-roledescription="text mark" text-anchor="middle" transform="translate(147.0195399077807,223.9629811968621)" font-family="sans-serif" font-size="12px" fill="#134226">4.06%</text><text aria-label="Value: 163.99; Variable: Coal; Order: 1; percentage: 9.71%" role="graphics-symbol" aria-roledescription="text mark" text-anchor="middle" transform="translate(186.0237515672757,-10.465231939743177)" font-family="sans-serif" font-size="12px" fill="#8c6c12">9.71%</text><text aria-label="Value: 247.47; Variable: Gas; Order: 2; percentage: 14.65%" role="graphics-symbol" aria-roledescription="text mark" text-anchor="middle" transform="translate(255.25896223720505,46.37577880138733)" font-family="sans-serif" font-size="12px" fill="#f3892c">14.65%</text><text aria-label="Value: 243.84; Variable: Hydro; Order: 5; percentage: 14.43%" role="graphics-symbol" aria-roledescription="text mark" text-anchor="middle" transform="translate(81.67116201856767,202.64669229177008)" font-family="sans-serif" font-size="12px" fill="#8fc6fa">14.43%</text><text aria-label="Value: 405.76; Variable: Nuclear; Order: 3; percentage: 24.01%" role="graphics-symbol" aria-roledescription="text mark" text-anchor="middle" transform="translate(240.71810186702317,182.55078607909923)" font-family="sans-serif" font-size="12px" fill="#feb99a">24.01%</text><text aria-label="Value: 213.95; Variable: Solar; Order: 6; percentage: 12.66%" role="graphics-symbol" aria-roledescription="text mark" text-anchor="middle" transform="translate(30.777021266591007,117.63383078716721)" font-family="sans-serif" font-size="12px" fill="#1D435E">12.66%</text><text aria-label="Value: 296.9; Variable: Wind; Order: 7; percentage: 17.57%" role="graphics-symbol" aria-roledescription="text mark" text-anchor="middle" transform="translate(69.54252448136423,14.968575024499785)" font-family="sans-serif" font-size="12px" fill="#BBDFC5">17.57%</text><text aria-label="Value: 49.17; Variable: Other; Order: 8; percentage: 2.91%" role="graphics-symbol" aria-roledescription="text mark" text-anchor="middle" transform="translate(139.04489329707727,-15.498893874075577)" font-family="sans-serif" font-size="12px" fill="#808080">2.91%</text></g><g class="mark-group role-legend" role="graphics-symbol" aria-roledescription="legend" aria-label="Symbol legend for fill color with 8 values: Coal, Gas, Nuclear, Bioenergy, Hydro, ending with Other"><g transform="translate(318,0)"><path class="background" aria-hidden="true" d="M0,0h62v102h-62Z" pointer-events="none"/><g><g class="mark-group role-legend-entry"><g transform="translate(0,0)"><path class="background" aria-hidden="true" d="M0,0h0v0h0Z" pointer-events="none"/><g><g class="mark-group role-scope" role="graphics-object" aria-roledescription="group mark container"><g transform="translate(0,0)"><path class="background" aria-hidden="true" d="M0,0h61.029296875v11h-61.029296875Z" pointer-events="none" opacity="1"/><g><g class="mark-symbol role-legend-symbol" pointer-events="none"><path transform="translate(6,6)" d="M5,0A5,5,0,1,1,-5,0A5,5,0,1,1,5,0" fill="#8c6c12" stroke-width="1.5" opacity="1"/></g><g class="mark-text role-legend-label" pointer-events="none"><text text-anchor="start" transform="translate(16,9)" font-family="sans-serif" font-size="10px" fill="#000" opacity="1">Coal</text></g></g><path class="foreground" aria-hidden="true" d="" pointer-events="none" display="none"/></g><g transform="translate(0,13)"><path class="background" aria-hidden="true" d="M0,0h61.029296875v11h-61.029296875Z" pointer-events="none" opacity="1"/><g><g class="mark-symbol role-legend-symbol" pointer-events="none"><path transform="translate(6,6)" d="M5,0A5,5,0,1,1,-5,0A5,5,0,1,1,5,0" fill="#f3892c" stroke-width="1.5" opacity="1"/></g><g class="mark-text role-legend-label" pointer-events="none"><text text-anchor="start" transform="translate(16,9)" font-family="sans-serif" font-size="10px" fill="#000" opacity="1">Gas</text></g></g><path class="foreground" aria-hidden="true" d="" pointer-events="none" display="none"/></g><g transform="translate(0,26)"><path class="background" aria-hidden="true" d="M0,0h61.029296875v11h-61.029296875Z" pointer-events="none" opacity="1"/><g><g class="mark-symbol role-legend-symbol" pointer-events="none"><path transform="translate(6,6)" d="M5,0A5,5,0,1,1,-5,0A5,5,0,1,1,5,0" fill="#feb99a" stroke-width="1.5" opacity="1"/></g><g class="mark-text role-legend-label" pointer-events="none"><text text-anchor="start" transform="translate(16,9)" font-family="sans-serif" font-size="10px" fill="#000" opacity="1">Nuclear</text></g></g><path class="foreground" aria-hidden="true" d="" pointer-events="none" display="none"/></g><g transform="translate(0,39)"><path class="background" aria-hidden="true" d="M0,0h61.029296875v11h-61.029296875Z" pointer-events="none" opacity="1"/><g><g class="mark-symbol role-legend-symbol" pointer-events="none"><path transform="translate(6,6)" d="M5,0A5,5,0,1,1,-5,0A5,5,0,1,1,5,0" fill="#134226" stroke-width="1.5" opacity="1"/></g><g class="mark-text role-legend-label" pointer-events="none"><text text-anchor="start" transform="translate(16,9)" font-family="sans-serif" font-size="10px" fill="#000" opacity="1">Bioenergy</text></g></g><path class="foreground" aria-hidden="true" d="" pointer-events="none" display="none"/></g><g transform="translate(0,52)"><path class="background" aria-hidden="true" d="M0,0h61.029296875v11h-61.029296875Z" pointer-events="none" opacity="1"/><g><g class="mark-symbol role-legend-symbol" pointer-events="none"><path transform="translate(6,6)" d="M5,0A5,5,0,1,1,-5,0A5,5,0,1,1,5,0" fill="#8fc6fa" stroke-width="1.5" opacity="1"/></g><g class="mark-text role-legend-label" pointer-events="none"><text text-anchor="start" transform="translate(16,9)" font-family="sans-serif" font-size="10px" fill="#000" opacity="1">Hydro</text></g></g><path class="foreground" aria-hidden="true" d="" pointer-events="none" display="none"/></g><g transform="translate(0,65)"><path class="background" aria-hidden="true" d="M0,0h61.029296875v11h-61.029296875Z" pointer-events="none" opacity="1"/><g><g class="mark-symbol role-legend-symbol" pointer-events="none"><path transform="translate(6,6)" d="M5,0A5,5,0,1,1,-5,0A5,5,0,1,1,5,0" fill="#1D435E" stroke-width="1.5" opacity="1"/></g><g class="mark-text role-legend-label" pointer-events="none"><text text-anchor="start" transform="translate(16,9)" font-family="sans-serif" font-size="10px" fill="#000" opacity="1">Solar</text></g></g><path class="foreground" aria-hidden="true" d="" pointer-events="none" display="none"/></g><g transform="translate(0,78)"><path class="background" aria-hidden="true" d="M0,0h61.029296875v11h-61.029296875Z" pointer-events="none" opacity="1"/><g><g class="mark-symbol role-legend-symbol" pointer-events="none"><path transform="translate(6,6)" d="M5,0A5,5,0,1,1,-5,0A5,5,0,1,1,5,0" fill="#BBDFC5" stroke-width="1.5" opacity="1"/></g><g class="mark-text role-legend-label" pointer-events="none"><text text-anchor="start" transform="translate(16,9)" font-family="sans-serif" font-size="10px" fill="#000" opacity="1">Wind</text></g></g><path class="foreground" aria-hidden="true" d="" pointer-events="none" display="none"/></g><g transform="translate(0,91)"><path class="background" aria-hidden="true" d="M0,0h61.029296875v11h-61.029296875Z" pointer-events="none" opacity="1"/><g><g class="mark-symbol role-legend-symbol" pointer-events="none"><path transform="translate(6,6)" d="M5,0A5,5,0,1,1,-5,0A5,5,0,1,1,5,0" fill="#808080" stroke-width="1.5" opacity="1"/></g><g class="mark-text role-legend-label" pointer-events="none"><text text-anchor="start" transform="translate(16,9)" font-family="sans-serif" font-size="10px" fill="#000" opacity="1">Other</text></g></g><path class="foreground" aria-hidden="true" d="" pointer-events="none" display="none"/></g></g></g><path class="foreground" aria-hidden="true" d="" pointer-events="none" display="none"/></g></g></g><path class="foreground" aria-hidden="true" d="" pointer-events="none" display="none"/></g></g><g class="mark-group role-title"><g transform="translate(0,-52.49889387407558)"><path class="background" aria-hidden="true" d="M0,0h0v0h0Z" pointer-events="none"/><g><g class="mark-text role-title-text" role="graphics-symbol" aria-roledescription="title" aria-label="Title text 'Share of Energy Sources in the EU (2024)'" pointer-events="none"><text text-anchor="start" transform="translate(0,13)" font-family="sans-serif" font-size="17px" font-weight="bold" fill="#000" opacity="1">Share of Energy Sources in the EU (2024)</text></g></g><path class="foreground" aria-hidden="true" d="" pointer-events="none" display="none"/></g></g></g><path class="foreground" aria-hidden="true" d="" display="none"/></g></g></g></svg>