<svg xmlns="http://www.w3.org/2000/svg" xmlns:xlink="http://www.w3.org/1999/xlink" version="1.1" class="marks" width="445" height="694" viewBox="0 0 445 694"><rect width="445" height="694" fill="white"/><g fill="none" stroke-miterlimit="10" transform="translate(83,57)"><g class="mark-group role-frame root" role="graphics-object" aria-roledescription="group mark container"><g transform="translate(0,0)"><path class="background" aria-hidden="true" d="M0.5,0.5h300v600h-300Z" stroke="#ddd"/><g><g class="mark-group role-axis" aria-hidden="true"><g transform="translate(0.5,600.5)"><path class="background" aria-hidden="true" d="M0,0h0v0h0Z" pointer-events="none"/><g><g class="mark-rule role-axis-grid" pointer-events="none"><line transform="translate(0,0)" x2="0" y2="-600" stroke="#ddd" stroke-width="1" opacity="1"/><line transform="translate(35,0)" x2="0" y2="-600" stroke="#ddd" stroke-width="1" opacity="1"/><line transform="translate(71,0)" x2="0" y2="-600" stroke="#ddd" stroke-width="1" opacity="1"/><line transform="translate(106,0)" x2="0" y2="-600" stroke="#ddd" stroke-width="1" opacity="1"/><line transform="translate(141,0)" x2="0" y2="-600" stroke="#ddd" stroke-width="1" opacity="1"/><line transform="translate(176,0)" x2="0" y2="-600" stroke="#ddd" stroke-width="1" opacity="1"/><line transform="translate(212,0)" x2="0" y2="-600" stroke="#ddd" stroke-width="1" opacity="1"/><line transform="translate(247,0)" x2="0" y2="-600" stroke="#ddd" stroke-width="1" opacity="1"/><line transform="translate(282,0)" x2="0" y2="-600" stroke="#ddd" stroke-width="1" opacity="1"/></g></g><path class="foreground" aria-hidden="true" d="" pointer-events="none" display="none"/></g></g><g class="mark-group role-axis" role="graphics-symbol" aria-roledescription="axis" aria-label="X-axis titled 'Value' for a linear scale with values from 0 to 85"><g transform="translate(0.5,600.5)"><path class="background" aria-hidden="true" d="M0,0h0v0h0Z" pointer-events="none"/><g><g class="mark-rule role-axis-tick" pointer-events="none"><line transform="translate(0,0)" x2="0" y2="5" stroke="#888" stroke-width="1" opacity="1"/><line transform="translate(35,0)" x2="0" y2="5" stroke="#888" stroke-width="1" opacity="1"/><line transform="translate(71,0)" x2="0" y2="5" stroke="#888" stroke-width="1" opacity="1"/><line transform="translate(106,0)" x2="0" y2="5" stroke="#888" stroke-width="1" opacity="1"/><line transform="translate(141,0)" x2="0" y2="5" stroke="#888" stroke-width="1" opacity="1"/><line transform="translate(176,0)" x2="0" y2="5" stroke="#888" stroke-width="1" opacity="1"/><line transform="translate(212,0)" x2="0" y2="5" stroke="#888" stroke-width="1" opacity="1"/><line transform="translate(247,0)" x2="0" y2="5" stroke="#888" stroke-width="1" opacity="1"/><line transform="translate(282,0)" x2="0" y2="5" stroke="#888" stroke-width="1" opacity="1"/></g><g class="mark-text role-axis-label" pointer-events="none"><text text-anchor="start" transform="translate(0,15)" font-family="sans-serif" font-size="10px" fill="#000" opacity="1">0</text><text text-anchor="middle" transform="translate(35.294117647058826,15)" font-family="sans-serif" font-size="10px" fill="#000" opacity="1">10</text><text text-anchor="middle" transform="translate(70.58823529411765,15)" font-family="sans-serif" font-size="10px" fill="#000" opacity="1">20</text><text text-anchor="middle" transform="translate(105.88235294117648,15)" font-family="sans-serif" font-size="10px" fill="#000" opacity="1">30</text><text text-anchor="middle" transform="translate(141.1764705882353,15)" font-family="sans-serif" font-size="10px" fill="#000" opacity="1">40</text><text text-anchor="middle" transform="translate(176.47058823529412,15)" font-family="sans-serif" font-size="10px" fill="#000" opacity="1">50</text><text text-anchor="middle" transform="translate(211.76470588235296,15)" font-family="sans-serif" font-size="10px" fill="#000" opacity="1">60</text><text text-anchor="middle" transform="translate(247.05882352941174,15)" font-family="sans-serif" font-size="10px" fill="#000" opacity="1">70</text><text text-anchor="middle" transform="translate(282.3529411764706,15)" font-family="sans-serif" font-size="10px" fill="#000" opacity="1">80</text></g><g class="mark-rule role-axis-domain" pointer-events="none"><line transform="translate(0,0)" x2="300" y2="0" stroke="#888" stroke-width="1" opacity="1"/></g><g class="mark-text role-axis-title" pointer-events="none"><text text-anchor="middle" transform="translate(150,30)" font-family="sans-serif" font-size="11px" font-weight="bold" fill="#000" opacity="1">Value</text></g></g><path class="foreground" aria-hidden="true" d="" pointer-events="none" display="none"/></g></g><g class="mark-group role-axis" role="graphics-symbol" aria-roledescription="axis" aria-label="Y-axis for a discrete scale with 26 values: Austria, Belgium, Bulgaria, Cyprus, Czech Republic, ending with Sweden"><g transform="translate(0.5,0.5)"><path class="background" aria-hidden="true" d="M0,0h0v0h0Z" pointer-events="none"/><g><g class="mark-rule role-axis-tick" pointer-events="none"><line transform="translate(0,12)" x2="-5" y2="0" stroke="#888" stroke-width="1" opacity="1"/><line transform="translate(0,35)" x2="-5" y2="0" stroke="#888" stroke-width="1" opacity="1"/><line transform="translate(0,58)" x2="-5" y2="0" stroke="#888" stroke-width="1" opacity="1"/><line transform="translate(0,81)" x2="-5" y2="0" stroke="#888" stroke-width="1" opacity="1"/><line transform="translate(0,104)" x2="-5" y2="0" stroke="#888" stroke-width="1" opacity="1"/><line transform="translate(0,127)" x2="-5" y2="0" stroke="#888" stroke-width="1" opacity="1"/><line transform="translate(0,150)" x2="-5" y2="0" stroke="#888" stroke-width="1" opacity="1"/><line transform="translate(0,173)" x2="-5" y2="0" stroke="#888" stroke-width="1" opacity="1"/><line transform="translate(0,196)" x2="-5" y2="0" stroke="#888" stroke-width="1" opacity="1"/><line transform="translate(0,219)" x2="-5" y2="0" stroke="#888" stroke-width="1" opacity="1"/><line transform="translate(0,242)" x2="-5" y2="0" stroke="#888" stroke-width="1" opacity="1"/><line transform="translate(0,265)" x2="-5" y2="0" stroke="#888" stroke-width="1" opacity="1"/><line transform="translate(0,288)" x2="-5" y2="0" stroke="#888" stroke-width="1" opacity="1"/><line transform="translate(0,312)" x2="-5" y2="0" stroke="#888" stroke-width="1" opacity="1"/><line transform="translate(0,335)" x2="-5" y2="0" stroke="#888" stroke-width="1" opacity="1"/><line transform="translate(0,358)" x2="-5" y2="0" stroke="#888" stroke-width="1" opacity="1"/><line transform="translate(0,381)" x2="-5" y2="0" stroke="#888" stroke-width="1" opacity="1"/><line transform="translate(0,404)" x2="-5" y2="0" stroke="#888" stroke-width="1" opacity="1"/><line transform="translate(0,427)" x2="-5" y2="0" stroke="#888" stroke-width="1" opacity="1"/><line transform="translate(0,450)" x2="-5" y2="0" stroke="#888" stroke-width="1" opacity="1"/><line transform="translate(0,473)" x2="-5" y2="0" stroke="#888" stroke-width="1" opacity="1"/><line transform="translate(0,496)" x2="-5" y2="0" stroke="#888" stroke-width="1" opacity="1"/><line transform="translate(0,519)" x2="-5" y2="0" stroke="#888" stroke-width="1" opacity="1"/><line transform="translate(0,542)" x2="-5" y2="0" stroke="#888" stroke-width="1" opacity="1"/><line transform="translate(0,565)" x2="-5" y2="0" stroke="#888" stroke-width="1" opacity="1"/><line transform="translate(0,588)" x2="-5" y2="0" stroke="#888" stroke-width="1" opacity="1"/></g><g class="mark-text role-axis-label" pointer-events="none"><text text-anchor="end" transform="translate(-7,14.538461538461547)" font-family="sans-serif" font-size="10px" fill="#000" opacity="1">Austria</text><text text-anchor="end" transform="translate(-7,37.61538461538463)" font-family="sans-serif" font-size="10px" fill="#000" opacity="1">Belgium</text><text text-anchor="end" transform="translate(-7,60.6923076923077)" font-family="sans-serif" font-size="10px" fill="#000" opacity="1">Bulgaria</text><text text-anchor="end" transform="translate(-7,83.76923076923077)" font-family="sans-serif" font-size="10px" fill="#000" opacity="1">Cyprus</text><text text-anchor="end" transform="translate(-7,106.84615384615385)" font-family="sans-serif" font-size="10px" fill="#000" opacity="1">Czech Republic</text><text text-anchor="end" transform="translate(-7,129.92307692307693)" font-family="sans-serif" font-size="10px" fill="#000" opacity="1">Germany</text><text text-anchor="end" transform="translate(-7,153)" font-family="sans-serif" font-size="10px" fill="#000" opacity="1">Denmark</text><text text-anchor="end" transform="translate(-7,176.0769230769231)" font-family="sans-serif" font-size="10px" fill="#000" opacity="1">Spain</text><text text-anchor="end" transform="translate(-7,199.15384615384616)" font-family="sans-serif" font-size="10px" fill="#000" opacity="1">Estonia</text><text text-anchor="end" transform="translate(-7,222.23076923076923)" font-family="sans-serif" font-size="10px" fill="#000" opacity="1">Finland</text><text text-anchor="end" transform="translate(-7,245.30769230769232)" font-family="sans-serif" font-size="10px" fill="#000" opacity="1">France</text><text text-anchor="end" transform="translate(-7,268.38461538461536)" font-family="sans-serif" font-size="10px" fill="#000" opacity="1">Greece</text><text text-anchor="end" transform="translate(-7,291.46153846153845)" font-family="sans-serif" font-size="10px" fill="#000" opacity="1">Croatia</text><text text-anchor="end" transform="translate(-7,314.53846153846155)" font-family="sans-serif" font-size="10px" fill="#000" opacity="1">Hungary</text><text text-anchor="end" transform="translate(-7,337.61538461538464)" font-family="sans-serif" font-size="10px" fill="#000" opacity="1">Ireland</text><text text-anchor="end" transform="translate(-7,360.6923076923077)" font-family="sans-serif" font-size="10px" fill="#000" opacity="1">Italy</text><text text-anchor="end" transform="translate(-7,383.7692307692308)" font-family="sans-serif" font-size="10px" fill="#000" opacity="1">Lithuania</text><text text-anchor="end" transform="translate(-7,406.84615384615387)" font-family="sans-serif" font-size="10px" fill="#000" opacity="1">Luxembourg</text><text text-anchor="end" transform="translate(-7,429.9230769230769)" font-family="sans-serif" font-size="10px" fill="#000" opacity="1">Latvia</text><text text-anchor="end" transform="translate(-7,453)" font-family="sans-serif" font-size="10px" fill="#000" opacity="1">Netherlands</text><text text-anchor="end" transform="translate(-7,476.0769230769231)" font-family="sans-serif" font-size="10px" fill="#000" opacity="1">Poland</text><text text-anchor="end" transform="translate(-7,499.15384615384613)" font-family="sans-serif" font-size="10px" fill="#000" opacity="1">Portugal</text><text text-anchor="end" transform="translate(-7,522.2307692307693)" font-family="sans-serif" font-size="10px" fill="#000" opacity="1">Romania</text><text text-anchor="end" transform="translate(-7,545.3076923076923)" font-family="sans-serif" font-size="10px" fill="#000" opacity="1">Slovakia</text><text text-anchor="end" transform="translate(-7,568.3846153846154)" font-family="sans-serif" font-size="10px" fill="#000" opacity="1">Slovenia</text><text text-anchor="end" transform="translate(-7,591.4615384615385)" font-family="sans-serif" font-size="10px" fill="#000" opacity="1">Sweden</text></g><g class="mark-rule role-axis-domain" pointer-events="none"><line transform="translate(0,0)" x2="0" y2="600" stroke="#888" stroke-width="1" opacity="1"/></g></g><path class="foreground" aria-hidden="true" d="" pointer-events="none" display="none"/></g></g><g class="mark-group role-scope layer_0_pathgroup" role="graphics-object" aria-roledescription="group mark container"><g transform="translate(0,0)"><path class="background" aria-hidden="true" d="M0,0h300v600h-300Z"/><g><g class="mark-line role-mark layer_0_marks" role="graphics-object" aria-roledescription="line mark container"><path aria-label="Value: 15.8880109928; Country_Name: Austria" role="graphics-symbol" aria-roledescription="line mark" d="M56.075,11.538L90.974,11.538" stroke="#134226" stroke-width="2"/></g></g><path class="foreground" aria-hidden="true" d="" display="none"/></g><g transform="translate(0,0)"><path class="background" aria-hidden="true" d="M0,0h300v600h-300Z"/><g><g class="mark-line role-mark layer_0_marks" role="graphics-object" aria-roledescription="line mark container"><path aria-label="Value: 19.3649085038; Country_Name: Belgium" role="graphics-symbol" aria-roledescription="line mark" d="M68.347,34.615L115.77,34.615" stroke="#134226" stroke-width="2"/></g></g><path class="foreground" aria-hidden="true" d="" display="none"/></g><g transform="translate(0,0)"><path class="background" aria-hidden="true" d="M0,0h300v600h-300Z"/><g><g class="mark-line role-mark layer_0_marks" role="graphics-object" aria-roledescription="line mark container"><path aria-label="Value: 6.5180102916; Country_Name: Bulgaria" role="graphics-symbol" aria-roledescription="line mark" d="M23.005,57.692L62.808,57.692" stroke="#134226" stroke-width="2"/></g></g><path class="foreground" aria-hidden="true" d="" display="none"/></g><g transform="translate(0,0)"><path class="background" aria-hidden="true" d="M0,0h300v600h-300Z"/><g><g class="mark-line role-mark layer_0_marks" role="graphics-object" aria-roledescription="line mark container"><path aria-label="Value: 15.0515463918; Country_Name: Cyprus" role="graphics-symbol" aria-roledescription="line mark" d="M53.123,80.769L81.336,80.769" stroke="#134226" stroke-width="2"/></g></g><path class="foreground" aria-hidden="true" d="" display="none"/></g><g transform="translate(0,0)"><path class="background" aria-hidden="true" d="M0,0h300v600h-300Z"/><g><g class="mark-line role-mark layer_0_marks" role="graphics-object" aria-roledescription="line mark container"><path aria-label="Value: 9.79889842449; Country_Name: Czech Republic" role="graphics-symbol" aria-roledescription="line mark" d="M34.584,103.846L52.723,103.846" stroke="#134226" stroke-width="2"/></g></g><path class="foreground" aria-hidden="true" d="" display="none"/></g><g transform="translate(0,0)"><path class="background" aria-hidden="true" d="M0,0h300v600h-300Z"/><g><g class="mark-line role-mark layer_0_marks" role="graphics-object" aria-roledescription="line mark container"><path aria-label="Value: 36.8005064207; Country_Name: Germany" role="graphics-symbol" aria-roledescription="line mark" d="M129.884,126.923L190.874,126.923" stroke="#134226" stroke-width="2"/></g></g><path class="foreground" aria-hidden="true" d="" display="none"/></g><g transform="translate(0,0)"><path class="background" aria-hidden="true" d="M0,0h300v600h-300Z"/><g><g class="mark-line role-mark layer_0_marks" role="graphics-object" aria-roledescription="line mark container"><path aria-label="Value: 68.5565430585; Country_Name: Denmark" role="graphics-symbol" aria-roledescription="line mark" d="M241.964,150L287.232,150" stroke="#134226" stroke-width="2"/></g></g><path class="foreground" aria-hidden="true" d="" display="none"/></g><g transform="translate(0,0)"><path class="background" aria-hidden="true" d="M0,0h300v600h-300Z"/><g><g class="mark-line role-mark layer_0_marks" role="graphics-object" aria-roledescription="line mark container"><path aria-label="Value: 36.1437987788; Country_Name: Spain" role="graphics-symbol" aria-roledescription="line mark" d="M127.566,173.077L166.033,173.077" stroke="#134226" stroke-width="2"/></g></g><path class="foreground" aria-hidden="true" d="" display="none"/></g><g transform="translate(0,0)"><path class="background" aria-hidden="true" d="M0,0h300v600h-300Z"/><g><g class="mark-line role-mark layer_0_marks" role="graphics-object" aria-roledescription="line mark container"><path aria-label="Value: 26.7123287671; Country_Name: Estonia" role="graphics-symbol" aria-roledescription="line mark" d="M94.279,196.154L177.595,196.154" stroke="#134226" stroke-width="2"/></g></g><path class="foreground" aria-hidden="true" d="" display="none"/></g><g transform="translate(0,0)"><path class="background" aria-hidden="true" d="M0,0h300v600h-300Z"/><g><g class="mark-line role-mark layer_0_marks" role="graphics-object" aria-roledescription="line mark container"><path aria-label="Value: 28.8624300674; Country_Name: Finland" role="graphics-symbol" aria-roledescription="line mark" d="M101.867,219.231L119.773,219.231" stroke="#134226" stroke-width="2"/></g></g><path class="foreground" aria-hidden="true" d="" display="none"/></g><g transform="translate(0,0)"><path class="background" aria-hidden="true" d="M0,0h300v600h-300Z"/><g><g class="mark-line role-mark layer_0_marks" role="graphics-object" aria-roledescription="line mark container"><path aria-label="Value: 10.2270713118; Country_Name: France" role="graphics-symbol" aria-roledescription="line mark" d="M36.096,242.308L50.469,242.308" stroke="#134226" stroke-width="2"/></g></g><path class="foreground" aria-hidden="true" d="" display="none"/></g><g transform="translate(0,0)"><path class="background" aria-hidden="true" d="M0,0h300v600h-300Z"/><g><g class="mark-line role-mark layer_0_marks" role="graphics-object" aria-roledescription="line mark container"><path aria-label="Value: 29.5349349791; Country_Name: Greece" role="graphics-symbol" aria-roledescription="line mark" d="M104.241,265.385L161.051,265.385" stroke="#134226" stroke-width="2"/></g></g><path class="foreground" aria-hidden="true" d="" display="none"/></g><g transform="translate(0,0)"><path class="background" aria-hidden="true" d="M0,0h300v600h-300Z"/><g><g class="mark-line role-mark layer_0_marks" role="graphics-object" aria-roledescription="line mark container"><path aria-label="Value: 23.8518518519; Country_Name: Croatia" role="graphics-symbol" aria-roledescription="line mark" d="M84.183,288.462L98.016,288.462" stroke="#134226" stroke-width="2"/></g></g><path class="foreground" aria-hidden="true" d="" display="none"/></g><g transform="translate(0,0)"><path class="background" aria-hidden="true" d="M0,0h300v600h-300Z"/><g><g class="mark-line role-mark layer_0_marks" role="graphics-object" aria-roledescription="line mark container"><path aria-label="Value: 16.9267707083; Country_Name: Hungary" role="graphics-symbol" aria-roledescription="line mark" d="M59.742,311.538L117.5,311.538" stroke="#134226" stroke-width="2"/></g></g><path class="foreground" aria-hidden="true" d="" display="none"/></g><g transform="translate(0,0)"><path class="background" aria-hidden="true" d="M0,0h300v600h-300Z"/><g><g class="mark-line role-mark layer_0_marks" role="graphics-object" aria-roledescription="line mark container"><path aria-label="Value: 33.0761489433; Country_Name: Ireland" role="graphics-symbol" aria-roledescription="line mark" d="M116.739,334.615L149.806,334.615" stroke="#134226" stroke-width="2"/></g></g><path class="foreground" aria-hidden="true" d="" display="none"/></g><g transform="translate(0,0)"><path class="background" aria-hidden="true" d="M0,0h300v600h-300Z"/><g><g class="mark-line role-mark layer_0_marks" role="graphics-object" aria-roledescription="line mark container"><path aria-label="Value: 26.0364716184; Country_Name: Italy" role="graphics-symbol" aria-roledescription="line mark" d="M91.893,357.692L117.747,357.692" stroke="#134226" stroke-width="2"/></g></g><path class="foreground" aria-hidden="true" d="" display="none"/></g><g transform="translate(0,0)"><path class="background" aria-hidden="true" d="M0,0h300v600h-300Z"/><g><g class="mark-line role-mark layer_0_marks" role="graphics-object" aria-roledescription="line mark container"><path aria-label="Value: 50.7246376812; Country_Name: Lithuania" role="graphics-symbol" aria-roledescription="line mark" d="M179.028,380.769L249.453,380.769" stroke="#134226" stroke-width="2"/></g></g><path class="foreground" aria-hidden="true" d="" display="none"/></g><g transform="translate(0,0)"><path class="background" aria-hidden="true" d="M0,0h300v600h-300Z"/><g><g class="mark-line role-mark layer_0_marks" role="graphics-object" aria-roledescription="line mark container"><path aria-label="Value: 65.5462184874; Country_Name: Luxembourg" role="graphics-symbol" aria-roledescription="line mark" d="M231.34,403.846L272.727,403.846" stroke="#134226" stroke-width="2"/></g></g><path class="foreground" aria-hidden="true" d="" display="none"/></g><g transform="translate(0,0)"><path class="background" aria-hidden="true" d="M0,0h300v600h-300Z"/><g><g class="mark-line role-mark layer_0_marks" role="graphics-object" aria-roledescription="line mark container"><path aria-label="Value: 11.3718411552; Country_Name: Latvia" role="graphics-symbol" aria-roledescription="line mark" d="M40.136,426.923L31.19,426.923" stroke="#134226" stroke-width="2"/></g></g><path class="foreground" aria-hidden="true" d="" display="none"/></g><g transform="translate(0,0)"><path class="background" aria-hidden="true" d="M0,0h300v600h-300Z"/><g><g class="mark-line role-mark layer_0_marks" role="graphics-object" aria-roledescription="line mark container"><path aria-label="Value: 33.7983567271; Country_Name: Netherlands" role="graphics-symbol" aria-roledescription="line mark" d="M119.288,450L194.202,450" stroke="#134226" stroke-width="2"/></g></g><path class="foreground" aria-hidden="true" d="" display="none"/></g><g transform="translate(0,0)"><path class="background" aria-hidden="true" d="M0,0h300v600h-300Z"/><g><g class="mark-line role-mark layer_0_marks" role="graphics-object" aria-roledescription="line mark container"><path aria-label="Value: 13.5904785643; Country_Name: Poland" role="graphics-symbol" aria-roledescription="line mark" d="M47.966,473.077L101.776,473.077" stroke="#134226" stroke-width="2"/></g></g><path class="foreground" aria-hidden="true" d="" display="none"/></g><g transform="translate(0,0)"><path class="background" aria-hidden="true" d="M0,0h300v600h-300Z"/><g><g class="mark-line role-mark layer_0_marks" role="graphics-object" aria-roledescription="line mark container"><path aria-label="Value: 41.6916340171; Country_Name: Portugal" role="graphics-symbol" aria-roledescription="line mark" d="M147.147,496.154L190.389,496.154" stroke="#134226" stroke-width="2"/></g></g><path class="foreground" aria-hidden="true" d="" display="none"/></g><g transform="translate(0,0)"><path class="background" aria-hidden="true" d="M0,0h300v600h-300Z"/><g><g class="mark-line role-mark layer_0_marks" role="graphics-object" aria-roledescription="line mark container"><path aria-label="Value: 14.3148588915; Country_Name: Romania" role="graphics-symbol" aria-roledescription="line mark" d="M50.523,519.231L60.719,519.231" stroke="#134226" stroke-width="2"/></g></g><path class="foreground" aria-hidden="true" d="" display="none"/></g><g transform="translate(0,0)"><path class="background" aria-hidden="true" d="M0,0h300v600h-300Z"/><g><g class="mark-line role-mark layer_0_marks" role="graphics-object" aria-roledescription="line mark container"><path aria-label="Value: 6.53979238754; Country_Name: Slovakia" role="graphics-symbol" aria-roledescription="line mark" d="M23.082,542.308L25.356,542.308" stroke="#134226" stroke-width="2"/></g></g><path class="foreground" aria-hidden="true" d="" display="none"/></g><g transform="translate(0,0)"><path class="background" aria-hidden="true" d="M0,0h300v600h-300Z"/><g><g class="mark-line role-mark layer_0_marks" role="graphics-object" aria-roledescription="line mark container"><path aria-label="Value: 2.36439499305; Country_Name: Slovenia" role="graphics-symbol" aria-roledescription="line mark" d="M8.345,565.385L18.007,565.385" stroke="#134226" stroke-width="2"/></g></g><path class="foreground" aria-hidden="true" d="" display="none"/></g><g transform="translate(0,0)"><path class="background" aria-hidden="true" d="M0,0h300v600h-300Z"/><g><g class="mark-line role-mark layer_0_marks" role="graphics-object" aria-roledescription="line mark container"><path aria-label="Value: 22.0599158207; Country_Name: Sweden" role="graphics-symbol" aria-roledescription="line mark" d="M77.859,588.462L98.57,588.462" stroke="#134226" stroke-width="2"/></g></g><path class="foreground" aria-hidden="true" d="" display="none"/></g></g><g class="mark-symbol role-mark layer_1_marks" role="graphics-object" aria-roledescription="symbol mark container"><path aria-label="Value: 15.8880109928; Country_Name: Austria; Year: 2021" role="graphics-symbol" aria-roledescription="point" transform="translate(56.07533291571523,11.538461538461547)" d="M5,0A5,5,0,1,1,-5,0A5,5,0,1,1,5,0" fill="#99c2a4" stroke-width="2" opacity="0.7"/><path aria-label="Value: 19.3649085038; Country_Name: Belgium; Year: 2021" role="graphics-symbol" aria-roledescription="point" transform="translate(68.34673589564997,34.61538461538463)" d="M5,0A5,5,0,1,1,-5,0A5,5,0,1,1,5,0" fill="#99c2a4" stroke-width="2" opacity="0.7"/><path aria-label="Value: 6.5180102916; Country_Name: Bulgaria; Year: 2021" role="graphics-symbol" aria-roledescription="point" transform="translate(23.00474220563011,57.6923076923077)" d="M5,0A5,5,0,1,1,-5,0A5,5,0,1,1,5,0" fill="#99c2a4" stroke-width="2" opacity="0.7"/><path aria-label="Value: 15.0515463918; Country_Name: Cyprus; Year: 2021" role="graphics-symbol" aria-roledescription="point" transform="translate(53.12310491206792,80.76923076923077)" d="M5,0A5,5,0,1,1,-5,0A5,5,0,1,1,5,0" fill="#99c2a4" stroke-width="2" opacity="0.7"/><path aria-label="Value: 9.79889842449; Country_Name: Czech Republic; Year: 2021" role="graphics-symbol" aria-roledescription="point" transform="translate(34.58434738055592,103.84615384615385)" d="M5,0A5,5,0,1,1,-5,0A5,5,0,1,1,5,0" fill="#99c2a4" stroke-width="2" opacity="0.7"/><path aria-label="Value: 36.8005064207; Country_Name: Germany; Year: 2021" role="graphics-symbol" aria-roledescription="point" transform="translate(129.8841403083208,126.92307692307693)" d="M5,0A5,5,0,1,1,-5,0A5,5,0,1,1,5,0" fill="#99c2a4" stroke-width="2" opacity="0.7"/><path aria-label="Value: 68.5565430585; Country_Name: Denmark; Year: 2021" role="graphics-symbol" aria-roledescription="point" transform="translate(241.96426961835914,150)" d="M5,0A5,5,0,1,1,-5,0A5,5,0,1,1,5,0" fill="#99c2a4" stroke-width="2" opacity="0.7"/><path aria-label="Value: 36.1437987788; Country_Name: Spain; Year: 2021" role="graphics-symbol" aria-roledescription="point" transform="translate(127.56634863092393,173.0769230769231)" d="M5,0A5,5,0,1,1,-5,0A5,5,0,1,1,5,0" fill="#99c2a4" stroke-width="2" opacity="0.7"/><path aria-label="Value: 26.7123287671; Country_Name: Estonia; Year: 2021" role="graphics-symbol" aria-roledescription="point" transform="translate(94.27880741337631,196.15384615384616)" d="M5,0A5,5,0,1,1,-5,0A5,5,0,1,1,5,0" fill="#99c2a4" stroke-width="2" opacity="0.7"/><path aria-label="Value: 28.8624300674; Country_Name: Finland; Year: 2021" role="graphics-symbol" aria-roledescription="point" transform="translate(101.86740023796061,219.23076923076923)" d="M5,0A5,5,0,1,1,-5,0A5,5,0,1,1,5,0" fill="#99c2a4" stroke-width="2" opacity="0.7"/><path aria-label="Value: 10.2270713118; Country_Name: France; Year: 2021" role="graphics-symbol" aria-roledescription="point" transform="translate(36.09554580640378,242.30769230769232)" d="M5,0A5,5,0,1,1,-5,0A5,5,0,1,1,5,0" fill="#99c2a4" stroke-width="2" opacity="0.7"/><path aria-label="Value: 29.5349349791; Country_Name: Greece; Year: 2021" role="graphics-symbol" aria-roledescription="point" transform="translate(104.24094698492138,265.38461538461536)" d="M5,0A5,5,0,1,1,-5,0A5,5,0,1,1,5,0" fill="#99c2a4" stroke-width="2" opacity="0.7"/><path aria-label="Value: 23.8518518519; Country_Name: Croatia; Year: 2021" role="graphics-symbol" aria-roledescription="point" transform="translate(84.18300653594773,288.46153846153845)" d="M5,0A5,5,0,1,1,-5,0A5,5,0,1,1,5,0" fill="#99c2a4" stroke-width="2" opacity="0.7"/><path aria-label="Value: 16.9267707083; Country_Name: Hungary; Year: 2021" role="graphics-symbol" aria-roledescription="point" transform="translate(59.74154367629404,311.53846153846155)" d="M5,0A5,5,0,1,1,-5,0A5,5,0,1,1,5,0" fill="#99c2a4" stroke-width="2" opacity="0.7"/><path aria-label="Value: 33.0761489433; Country_Name: Ireland; Year: 2021" role="graphics-symbol" aria-roledescription="point" transform="translate(116.7393492116739,334.61538461538464)" d="M5,0A5,5,0,1,1,-5,0A5,5,0,1,1,5,0" fill="#99c2a4" stroke-width="2" opacity="0.7"/><path aria-label="Value: 26.0364716184; Country_Name: Italy; Year: 2021" role="graphics-symbol" aria-roledescription="point" transform="translate(91.89342924134284,357.6923076923077)" d="M5,0A5,5,0,1,1,-5,0A5,5,0,1,1,5,0" fill="#99c2a4" stroke-width="2" opacity="0.7"/><path aria-label="Value: 50.7246376812; Country_Name: Lithuania; Year: 2021" role="graphics-symbol" aria-roledescription="point" transform="translate(179.02813299232733,380.7692307692308)" d="M5,0A5,5,0,1,1,-5,0A5,5,0,1,1,5,0" fill="#99c2a4" stroke-width="2" opacity="0.7"/><path aria-label="Value: 65.5462184874; Country_Name: Luxembourg; Year: 2021" role="graphics-symbol" aria-roledescription="point" transform="translate(231.33959466139396,403.84615384615387)" d="M5,0A5,5,0,1,1,-5,0A5,5,0,1,1,5,0" fill="#99c2a4" stroke-width="2" opacity="0.7"/><path aria-label="Value: 11.3718411552; Country_Name: Latvia; Year: 2021" role="graphics-symbol" aria-roledescription="point" transform="translate(40.135909959651734,426.9230769230769)" d="M5,0A5,5,0,1,1,-5,0A5,5,0,1,1,5,0" fill="#99c2a4" stroke-width="2" opacity="0.7"/><path aria-label="Value: 33.7983567271; Country_Name: Netherlands; Year: 2021" role="graphics-symbol" aria-roledescription="point" transform="translate(119.2883178605232,450)" d="M5,0A5,5,0,1,1,-5,0A5,5,0,1,1,5,0" fill="#99c2a4" stroke-width="2" opacity="0.7"/><path aria-label="Value: 13.5904785643; Country_Name: Poland; Year: 2021" role="graphics-symbol" aria-roledescription="point" transform="translate(47.96639493284853,473.0769230769231)" d="M5,0A5,5,0,1,1,-5,0A5,5,0,1,1,5,0" fill="#99c2a4" stroke-width="2" opacity="0.7"/><path aria-label="Value: 41.6916340171; Country_Name: Portugal; Year: 2021" role="graphics-symbol" aria-roledescription="point" transform="translate(147.14694358960455,496.15384615384613)" d="M5,0A5,5,0,1,1,-5,0A5,5,0,1,1,5,0" fill="#99c2a4" stroke-width="2" opacity="0.7"/><path aria-label="Value: 14.3148588915; Country_Name: Romania; Year: 2021" role="graphics-symbol" aria-roledescription="point" transform="translate(50.52303138188291,519.2307692307693)" d="M5,0A5,5,0,1,1,-5,0A5,5,0,1,1,5,0" fill="#99c2a4" stroke-width="2" opacity="0.7"/><path aria-label="Value: 6.53979238754; Country_Name: Slovakia; Year: 2021" role="graphics-symbol" aria-roledescription="point" transform="translate(23.081620191329126,542.3076923076923)" d="M5,0A5,5,0,1,1,-5,0A5,5,0,1,1,5,0" fill="#99c2a4" stroke-width="2" opacity="0.7"/><path aria-label="Value: 2.36439499305; Country_Name: Slovenia; Year: 2021" role="graphics-symbol" aria-roledescription="point" transform="translate(8.344923504867872,565.3846153846154)" d="M5,0A5,5,0,1,1,-5,0A5,5,0,1,1,5,0" fill="#99c2a4" stroke-width="2" opacity="0.7"/><path aria-label="Value: 22.0599158207; Country_Name: Sweden; Year: 2021" role="graphics-symbol" aria-roledescription="point" transform="translate(77.8585264261684,588.4615384615385)" d="M5,0A5,5,0,1,1,-5,0A5,5,0,1,1,5,0" fill="#99c2a4" stroke-width="2" opacity="0.7"/><path aria-label="Value: 25.7760650824; Country_Name: Austria; Year: 2024" role="graphics-symbol" aria-roledescription="point" transform="translate(90.97434734972988,11.538461538461547)" d="M5,0A5,5,0,1,1,-5,0A5,5,0,1,1,5,0" fill="#134226" stroke-width="2" opacity="0.7"/><path aria-label="Value: 32.801531589; Country_Name: Belgium; Year: 2024" role="graphics-symbol" aria-roledescription="point" transform="translate(115.77011149067157,34.61538461538463)" d="M5,0A5,5,0,1,1,-5,0A5,5,0,1,1,5,0" fill="#134226" stroke-width="2" opacity="0.7"/><path aria-label="Value: 17.7955911824; Country_Name: Bulgaria; Year: 2024" role="graphics-symbol" aria-roledescription="point" transform="translate(62.80796887893433,57.6923076923077)" d="M5,0A5,5,0,1,1,-5,0A5,5,0,1,1,5,0" fill="#134226" stroke-width="2" opacity="0.7"/><path aria-label="Value: 23.0452674897; Country_Name: Cyprus; Year: 2024" role="graphics-symbol" aria-roledescription="point" transform="translate(81.3362381989833,80.76923076923077)" d="M5,0A5,5,0,1,1,-5,0A5,5,0,1,1,5,0" fill="#134226" stroke-width="2" opacity="0.7"/><path aria-label="Value: 14.9380449748; Country_Name: Czech Republic; Year: 2024" role="graphics-symbol" aria-roledescription="point" transform="translate(52.72251167562022,103.84615384615385)" d="M5,0A5,5,0,1,1,-5,0A5,5,0,1,1,5,0" fill="#134226" stroke-width="2" opacity="0.7"/><path aria-label="Value: 54.0810391625; Country_Name: Germany; Year: 2024" role="graphics-symbol" aria-roledescription="point" transform="translate(190.87425586752732,126.92307692307693)" d="M5,0A5,5,0,1,1,-5,0A5,5,0,1,1,5,0" fill="#134226" stroke-width="2" opacity="0.7"/><path aria-label="Value: 81.3822894168; Country_Name: Denmark; Year: 2024" role="graphics-symbol" aria-roledescription="point" transform="translate(287.23160970651765,150)" d="M5,0A5,5,0,1,1,-5,0A5,5,0,1,1,5,0" fill="#134226" stroke-width="2" opacity="0.7"/><path aria-label="Value: 47.0426157237; Country_Name: Spain; Year: 2024" role="graphics-symbol" aria-roledescription="point" transform="translate(166.03276137787958,173.0769230769231)" d="M5,0A5,5,0,1,1,-5,0A5,5,0,1,1,5,0" fill="#134226" stroke-width="2" opacity="0.7"/><path aria-label="Value: 50.3184713376; Country_Name: Estonia; Year: 2024" role="graphics-symbol" aria-roledescription="point" transform="translate(177.59460472086923,196.15384615384616)" d="M5,0A5,5,0,1,1,-5,0A5,5,0,1,1,5,0" fill="#134226" stroke-width="2" opacity="0.7"/><path aria-label="Value: 33.9357815805; Country_Name: Finland; Year: 2024" role="graphics-symbol" aria-roledescription="point" transform="translate(119.7733467545834,219.23076923076923)" d="M5,0A5,5,0,1,1,-5,0A5,5,0,1,1,5,0" fill="#134226" stroke-width="2" opacity="0.7"/><path aria-label="Value: 14.2995851355; Country_Name: France; Year: 2024" role="graphics-symbol" aria-roledescription="point" transform="translate(50.469124007622284,242.30769230769232)" d="M5,0A5,5,0,1,1,-5,0A5,5,0,1,1,5,0" fill="#134226" stroke-width="2" opacity="0.7"/><path aria-label="Value: 45.6310679612; Country_Name: Greece; Year: 2024" role="graphics-symbol" aria-roledescription="point" transform="translate(161.0508280982296,265.38461538461536)" d="M5,0A5,5,0,1,1,-5,0A5,5,0,1,1,5,0" fill="#134226" stroke-width="2" opacity="0.7"/><path aria-label="Value: 27.7711561383; Country_Name: Croatia; Year: 2024" role="graphics-symbol" aria-roledescription="point" transform="translate(98.01584519385823,288.46153846153845)" d="M5,0A5,5,0,1,1,-5,0A5,5,0,1,1,5,0" fill="#134226" stroke-width="2" opacity="0.7"/><path aria-label="Value: 33.2915622389; Country_Name: Hungary; Year: 2024" role="graphics-symbol" aria-roledescription="point" transform="translate(117.49963143151994,311.53846153846155)" d="M5,0A5,5,0,1,1,-5,0A5,5,0,1,1,5,0" fill="#134226" stroke-width="2" opacity="0.7"/><path aria-label="Value: 42.4450549451; Country_Name: Ireland; Year: 2024" role="graphics-symbol" aria-roledescription="point" transform="translate(149.8060762766645,334.61538461538464)" d="M5,0A5,5,0,1,1,-5,0A5,5,0,1,1,5,0" fill="#134226" stroke-width="2" opacity="0.7"/><path aria-label="Value: 33.3615938957; Country_Name: Italy; Year: 2024" role="graphics-symbol" aria-roledescription="point" transform="translate(117.74680198488893,357.6923076923077)" d="M5,0A5,5,0,1,1,-5,0A5,5,0,1,1,5,0" fill="#134226" stroke-width="2" opacity="0.7"/><path aria-label="Value: 70.6783369803; Country_Name: Lithuania; Year: 2024" role="graphics-symbol" aria-roledescription="point" transform="translate(249.45295404814004,380.7692307692308)" d="M5,0A5,5,0,1,1,-5,0A5,5,0,1,1,5,0" fill="#134226" stroke-width="2" opacity="0.7"/><path aria-label="Value: 77.2727272727; Country_Name: Luxembourg; Year: 2024" role="graphics-symbol" aria-roledescription="point" transform="translate(272.72727272727275,403.84615384615387)" d="M5,0A5,5,0,1,1,-5,0A5,5,0,1,1,5,0" fill="#134226" stroke-width="2" opacity="0.7"/><path aria-label="Value: 8.83720930233; Country_Name: Latvia; Year: 2024" role="graphics-symbol" aria-roledescription="point" transform="translate(31.19015047879617,426.9230769230769)" d="M5,0A5,5,0,1,1,-5,0A5,5,0,1,1,5,0" fill="#134226" stroke-width="2" opacity="0.7"/><path aria-label="Value: 55.0239838425; Country_Name: Netherlands; Year: 2024" role="graphics-symbol" aria-roledescription="point" transform="translate(194.20229591457888,450)" d="M5,0A5,5,0,1,1,-5,0A5,5,0,1,1,5,0" fill="#134226" stroke-width="2" opacity="0.7"/><path aria-label="Value: 28.8366216348; Country_Name: Poland; Year: 2024" role="graphics-symbol" aria-roledescription="point" transform="translate(101.77631165207846,473.0769230769231)" d="M5,0A5,5,0,1,1,-5,0A5,5,0,1,1,5,0" fill="#134226" stroke-width="2" opacity="0.7"/><path aria-label="Value: 53.943452381; Country_Name: Portugal; Year: 2024" role="graphics-symbol" aria-roledescription="point" transform="translate(190.3886554621849,496.15384615384613)" d="M5,0A5,5,0,1,1,-5,0A5,5,0,1,1,5,0" fill="#134226" stroke-width="2" opacity="0.7"/><path aria-label="Value: 17.2036823936; Country_Name: Romania; Year: 2024" role="graphics-symbol" aria-roledescription="point" transform="translate(60.718879036079336,519.2307692307693)" d="M5,0A5,5,0,1,1,-5,0A5,5,0,1,1,5,0" fill="#134226" stroke-width="2" opacity="0.7"/><path aria-label="Value: 7.18405873099; Country_Name: Slovakia; Year: 2024" role="graphics-symbol" aria-roledescription="point" transform="translate(25.35550140349795,542.3076923076923)" d="M5,0A5,5,0,1,1,-5,0A5,5,0,1,1,5,0" fill="#134226" stroke-width="2" opacity="0.7"/><path aria-label="Value: 5.10204081633; Country_Name: Slovenia; Year: 2024" role="graphics-symbol" aria-roledescription="point" transform="translate(18.007202881152455,565.3846153846154)" d="M5,0A5,5,0,1,1,-5,0A5,5,0,1,1,5,0" fill="#134226" stroke-width="2" opacity="0.7"/><path aria-label="Value: 27.9280983917; Country_Name: Sweden; Year: 2024" role="graphics-symbol" aria-roledescription="point" transform="translate(98.56975902943958,588.4615384615385)" d="M5,0A5,5,0,1,1,-5,0A5,5,0,1,1,5,0" fill="#134226" stroke-width="2" opacity="0.7"/></g><g class="mark-group role-legend" role="graphics-symbol" aria-roledescription="legend" aria-label="Symbol legend titled 'Year' for fill color with 2 values: 2021, 2024"><g transform="translate(318,0)"><path class="background" aria-hidden="true" d="M0,0h39v40h-39Z" pointer-events="none"/><g><g class="mark-group role-legend-entry"><g transform="translate(0,16)"><path class="background" aria-hidden="true" d="M0,0h0v0h0Z" pointer-events="none"/><g><g class="mark-group role-scope" role="graphics-object" aria-roledescription="group mark container"><g transform="translate(0,0)"><path class="background" aria-hidden="true" d="M0,0h38.24609375v11h-38.24609375Z" pointer-events="none" opacity="1"/><g><g class="mark-symbol role-legend-symbol" pointer-events="none"><path transform="translate(6,6)" d="M5,0A5,5,0,1,1,-5,0A5,5,0,1,1,5,0" fill="#99c2a4" stroke-width="1.5" opacity="0.7"/></g><g class="mark-text role-legend-label" pointer-events="none"><text text-anchor="start" transform="translate(16,9)" font-family="sans-serif" font-size="10px" fill="#000" opacity="1">2021</text></g></g><path class="foreground" aria-hidden="true" d="" pointer-events="none" display="none"/></g><g transform="translate(0,13)"><path class="background" aria-hidden="true" d="M0,0h38.24609375v11h-38.24609375Z" pointer-events="none" opacity="1"/><g><g class="mark-symbol role-legend-symbol" pointer-events="none"><path transform="translate(6,6)" d="M5,0A5,5,0,1,1,-5,0A5,5,0,1,1,5,0" fill="#134226" stroke-width="1.5" opacity="0.7"/></g><g class="mark-text role-legend-label" pointer-events="none"><text text-anchor="start" transform="translate(16,9)" font-family="sans-serif" font-size="10px" fill="#000" opacity="1">2024</text></g></g><path class="foreground" aria-hidden="true" d="" pointer-events="none" display="none"/></g></g></g><path class="foreground" aria-hidden="true" d="" pointer-events="none" display="none"/></g></g><g class="mark-text role-legend-title" pointer-events="none"><text text-anchor="start" transform="translate(0,9)" font-family="sans-serif" font-size="11px" font-weight="bold" fill="#000" opacity="1">Year</text></g></g><path class="foreground" aria-hidden="true" d="" pointer-events="none" display="none"/></g></g><g class="mark-group role-title"><g transform="translate(-77.0341796875,-51)"><path class="background" aria-hidden="true" d="M0,0h0v0h0Z" pointer-events="none"/><g><g class="mark-text role-title-text" role="graphics-symbol" aria-roledescription="title" aria-label="Title text 'Share of Renewable Energy in Total Energy Production (2021 to 2024)'" pointer-events="none"><text text-anchor="start" transform="translate(0,13)" font-family="sans-serif" font-size="17px" font-weight="bold" fill="#000" opacity="1"><tspan>Share of Renewable Energy in Total</tspan><tspan x="0" dy="19">Energy Production (2021 to 2024)</tspan></text></g></g><path class="foreground" aria-hidden="true" d="" pointer-events="none" display="none"/></g></g></g><path class="foreground" aria-hidden="true" d="" display="none"/></g></g></g></svg>