<svg xmlns="http://www.w3.org/2000/svg" xmlns:xlink="http://www.w3.org/1999/xlink" version="1.1" class="marks" width="477" height="362" viewBox="0 0 477 362"><rect width="477" height="362" fill="white"/><g fill="none" stroke-miterlimit="10" transform="translate(5,57)"><g class="mark-group role-frame root" role="graphics-object" aria-roledescription="group mark container"><g transform="translate(0,0)"><path class="background" aria-hidden="true" d="M0,0h400v300h-400Z"/><g><g class="mark-shape role-mark layer_0_marks" clip-path="url(#clip1)" role="graphics-symbol" aria-roledescription="shape mark container"><path transform="translate(0,0)" fill="lightgrey" stroke="white"/><path transform="translate(0,0)" fill="lightgrey" stroke="white"/><path transform="translate(0,0)" d="M203.607,221.714L202.837,224.497L203.695,227.993L206.224,229.964L206.114,232.078L204.112,233.234L203.761,235.836L200.924,239.702L199.868,239.152L199.758,237.402L196.371,234.713L195.844,230.893L196.349,225.366L197.185,222.823L196.152,221.534L195.756,218.916L198.395,214.839L198.79,216.398L200.44,215.669L201.737,217.897L203.189,218.735Z" fill="lightgrey" stroke="white"/><path transform="translate(0,0)" fill="lightgrey" stroke="white"/><path transform="translate(0,0)" fill="lightgrey" stroke="white"/><path transform="translate(0,0)" d="M352.554,226.674L353.808,228.801L356.139,230.21L354.907,232.228L358.162,234.97L356.447,237.523L359.042,239.676L361.769,240.976L361.922,246.44L359.701,246.665L357.216,242.113L357.238,240.896L354.533,240.923L352.73,238.789L351.455,239.004L349.057,236.687L344.505,234.699L345.099,230.784L344.065,227.938Z" fill="lightgrey" stroke="white"/><path transform="translate(0,0)" fill="lightgrey" stroke="white"/><path transform="translate(0,0)" fill="lightgrey" stroke="white"/><path transform="translate(0,0)" fill="lightgrey" stroke="white"/><path transform="translate(0,0)" d="M181.549,167.498L181.087,171.216L177.657,171.247L178.822,173.209L176.799,178.989L175.634,180.499L170.29,180.71L167.211,182.724L162.175,182.049L153.422,179.745L152.059,176.64L146.033,178.187L145.329,179.896L141.613,178.626L138.49,178.384L135.741,176.746L136.665,174.539L136.445,172.949L138.27,172.444L141.371,174.951L142.229,172.566L147.617,172.949L151.993,171.323L154.918,171.6L156.831,173.454L157.403,171.922L156.523,165.977L158.722,164.811L160.877,160.554L165.408,163.531L168.86,159.736L171.015,159.042L175.744,161.873L178.624,161.402L181.439,163.141L180.933,164.312Z" fill="lightgrey" stroke="white"/><path transform="translate(0,0)" d="M359.701,246.665L355.523,245.63L352.422,241.993L351.455,239.004L352.73,238.789L354.533,240.923L357.238,240.896L357.216,242.113ZM374.611,222.103L377.822,226.399L380.923,232.133L383.782,232.514L385.651,234.672L380.637,235.309L379.56,241.485L378.504,244.248L376.283,246.082L376.437,249.956L374.919,250.338L371.115,246.254L373.204,242.367L371.401,240.038L369.114,240.628L361.922,246.44L361.769,240.976L359.042,239.676L356.447,237.523L358.162,234.97L354.907,232.228L356.139,230.21L353.808,228.801L352.554,226.674L354.05,225.352L358.602,227.677L361.878,228.171L362.714,227.21L359.723,222.81L361.307,221.672L363.022,221.95L367.222,226.908L369.905,227.457L370.961,225.394Z" fill="lightgrey" stroke="white"/><path transform="translate(0,0)" fill="lightgrey" stroke="white"/><path transform="translate(0,0)" d="M98.07,137.024L102.556,137.802L108.208,135.765L112.079,140.027L115.443,142.29L114.739,148.788L113.156,149.142L112.496,154.446L107.152,150.14L104.008,150.88L99.741,146.378L96.904,142.519L94.068,142.356L93.188,138.957Z" fill="lightgrey" stroke="white"/><path transform="translate(0,0)" fill="lightgrey" stroke="white"/><path transform="translate(0,0)" fill="lightgrey" stroke="white"/><path transform="translate(0,0)" fill="lightgrey" stroke="white"/><path transform="translate(0,0)" d="M216.23,201.819L217.989,205.313L220.364,204.696L225.048,206.015L234.021,206.458L237.055,204.309L244.247,202.323L248.689,205.413L252.273,206.301L249.107,209.793L246.886,215.753L248.843,220.463L243.587,219.363L237.363,221.95L237.297,226.014L231.756,226.784L227.445,223.944L222.563,226.179L218.033,225.945L217.593,220.533L214.536,217.897L215.548,216.721L214.888,215.739L215.922,213.092L218.231,210.474L215.262,206.844L214.734,203.749Z" fill="lightgrey" stroke="white"/><path transform="translate(0,0)" fill="lightgrey" stroke="white"/><path transform="translate(0,0)" d="M193.93,196.465L196.13,196.436L194.612,200.214L197.559,203.49L196.657,207.472L195.228,207.858L194.084,208.613L192.105,210.574L191.203,215.163L185.794,212.004L183.484,208.499L181.153,206.644L178.36,203.475L177.019,200.836L174.028,196.815L175.326,193.231L177.503,195.224L178.822,193.422L181.681,193.231L186.937,194.668L191.159,194.551Z" fill="lightgrey" stroke="white"/><path transform="translate(0,0)" d="M221.288,111.191L227.181,111.261L233.823,107.33L235.23,101.391L240.244,97.966L239.672,93.16L243.389,91.325L249.942,87.112L256.386,89.87L257.244,92.555L260.454,91.27L266.436,93.855L267.03,98.888L265.71,101.75L269.537,108.638L272.022,110.541L271.67,112.418L275.782,114.235L277.542,116.963L275.166,119.191L270.24,118.847L269.053,119.794L270.504,123.154L272,129.58L266.744,130.169L264.875,132.332L264.479,137.289L262.038,136.345L256.54,136.809L254.934,134.518L252.647,136.229L250.338,134.801L245.544,134.601L238.727,132.248L232.547,131.461L227.819,131.696L224.476,134.368L221.552,134.751L221.42,130.354L219.55,125.726L223.201,123.666L223.245,119.639L221.552,115.749Z" fill="lightgrey" stroke="white"/><path transform="translate(0,0)" fill="lightgrey" stroke="white"/><path transform="translate(0,0)" fill="lightgrey" stroke="white"/><path transform="translate(0,0)" fill="lightgrey" stroke="white"/><path transform="translate(0,0)" fill="lightgrey" stroke="white"/><path transform="translate(0,0)" fill="lightgrey" stroke="white"/><path transform="translate(0,0)" fill="lightgrey" stroke="white"/><path transform="translate(0,0)" fill="lightgrey" stroke="white"/><path transform="translate(0,0)" fill="lightgrey" stroke="white"/><path transform="translate(0,0)" d="M136.445,172.949L136.665,174.539L135.741,176.746L138.49,178.384L141.613,178.626L141.129,182.274L138.446,183.773L133.916,182.649L132.596,186.222L129.694,186.505L128.638,185.103L125.207,188.08L122.261,188.495L119.622,186.624L117.532,182.754L114.608,184.132L114.717,180.122L119.182,175.088L118.984,172.796L121.755,173.622L123.448,172.076L128.638,172.137L129.892,170.17Z" fill="lightgrey" stroke="white"/><path transform="translate(0,0)" fill="lightgrey" stroke="white"/><path transform="translate(0,0)" fill="lightgrey" stroke="white"/><path transform="translate(0,0)" fill="lightgrey" stroke="white"/><path transform="translate(0,0)" fill="lightgrey" stroke="white"/><path transform="translate(0,0)" fill="lightgrey" stroke="white"/><path transform="translate(0,0)" fill="lightgrey" stroke="white"/><path transform="translate(0,0)" fill="lightgrey" stroke="white"/><path transform="translate(0,0)" fill="lightgrey" stroke="white"/><path transform="translate(0,0)" fill="lightgrey" stroke="white"/><path transform="translate(0,0)" d="M277.783,274.203L278.201,274.165L279.081,272.354L283.479,272.456L289.043,270.22L284.909,273.406L285.37,274.81L284.711,274.544L283.545,275.113L282.622,274.961L282.314,275.239L282.204,274.494L281.764,274.026L280.576,273.95L278.927,274.595Z" fill="lightgrey" stroke="white"/><path transform="translate(0,0)" d="M285.37,274.81L285.546,275.416L279.279,278.437L276.288,277.469L274.881,274.481L277.783,274.203L278.927,274.595L280.576,273.95L281.764,274.026L282.204,274.494L282.314,275.239L282.622,274.961L283.545,275.113L284.711,274.544Z" fill="lightgrey" stroke="white"/><path transform="translate(0,0)" d="M181.439,163.141L178.624,161.402L175.744,161.873L171.015,159.042L168.86,159.736L165.408,163.531L160.877,160.554L157.425,156.544L154.324,154.286L153.664,150.301L152.587,147.463L157.029,145.372L159.294,142.977L163.692,141.111L165.232,139.254L166.837,140.372L169.564,139.352L172.467,142.487L177.019,143.32L176.645,145.973L179.966,147.948L180.868,145.469L185.068,146.54L185.64,149.529L190.192,150.108L192.985,154.764L191.181,154.78L190.236,156.464L188.828,156.877L188.433,158.995L187.245,159.437L187.091,160.302L185.002,161.261L182.297,161.104Z" fill="lightgrey" stroke="white"/><path transform="translate(0,0)" d="M138.446,99.934L138.534,104.023L144.714,106.479L144.648,110.189L150.871,108.232L154.302,105.359L161.185,109.485L164.088,112.803L165.496,118.018L163.802,120.74L166.023,124.331L167.541,129.681L167.057,133.101L169.564,139.352L166.837,140.372L165.232,139.254L163.692,141.111L159.294,142.977L157.029,145.372L152.587,147.463L153.664,150.301L154.324,154.286L157.425,156.544L160.877,160.554L158.722,164.811L156.523,165.977L157.403,171.922L156.831,173.454L154.918,171.6L151.993,171.323L147.617,172.949L142.229,172.566L141.371,174.951L138.27,172.444L136.445,172.949L129.892,170.17L128.638,172.137L123.448,172.076L124.218,165.573L127.297,159.247L118.5,157.526L115.619,155.067L115.971,150.928L114.739,148.788L115.443,142.29L114.41,132.047L118.082,132.047L119.622,128.316L121.139,119.088L120.017,115.627L121.205,113.45L126.307,112.89L127.45,115.158L131.585,110.066L130.199,106.142L129.914,100.151L134.532,101.553Z" fill="lightgrey" stroke="white"/><path transform="translate(0,0)" fill="lightgrey" stroke="white"/><path transform="translate(0,0)" d="M151.685,101.876L145.285,95.861L144.428,91.362L153.4,87.762L155.336,93.215ZM138.446,99.934L134.532,101.553L129.914,100.151L127.428,94.202L127.253,83.025L128.264,80.033L130.023,76.676L135.389,75.971L137.545,72.851L142.449,69.629L142.251,75.475L140.447,79.125L141.173,82.256L144.494,83.924L142.998,88.077L141.173,86.889L136.775,94.713Z" fill="lightgrey" stroke="white"/><path transform="translate(0,0)" fill="lightgrey" stroke="white"/><path transform="translate(0,0)" d="M55.53,300L55.539,299.831L59.079,299.211L61.85,296.544L69.833,295.335L70.955,292.516L69.349,290.979L67.238,283.252L66.864,278.763L64.577,273.988L70.449,269.889L77.046,268.589L80.895,265.466L86.788,263.153L97.146,261.799L107.24,261.179L110.319,262.302L116.081,259.302L122.612,259.237L125.097,261.011L129.276,260.558L128.022,264.465L128.99,271.656L127.56,277.808L123.8,281.942L124.328,287.474L129.32,291.816L129.386,293.571L133.146,296.483L133.858,300L55.53,300Z" fill="lightgrey" stroke="white"/><path transform="translate(0,0)" fill="lightgrey" stroke="white"/><path transform="translate(0,0)" fill="lightgrey" stroke="white"/><path transform="translate(0,0)" fill="lightgrey" stroke="white"/><path transform="translate(0,0)" d="M22.64,221.506L22.947,215.64L20.44,212.018L29.083,205.957L36.56,207.472L44.763,207.43L51.272,208.869L56.33,208.428L66.205,208.698L68.646,211.962L79.883,215.739L82.104,213.952L88.988,217.701L96.069,216.623L96.399,221.423L90.615,226.853L82.786,228.568L82.236,231.288L78.476,235.728L76.123,242.194L78.498,246.692L74.979,250.167L73.66,255.203L69.041,256.742L64.709,262.624L56.968,262.74L51.14,262.599L47.314,265.287L44.983,268.142L41.992,267.516L39.727,264.966L37.99,260.584L32.294,259.393L31.788,256.859L34.053,253.962L34.889,251.851L32.778,249.548L34.471,244.407L32.03,239.662L34.669,239.017L34.911,235.241L35.9,234.076L35.966,227.787L38.803,225.587L37.088,221.492L33.525,221.2L32.492,222.241L28.885,222.241L27.346,218.218L24.861,219.419Z" fill="lightgrey" stroke="white"/><path transform="translate(0,0)" d="M226.346,68.912L227.049,62.086L224.806,63.563L220.936,59.415L220.408,52.609L228.127,49.285L235.824,47.531L242.443,49.509L248.755,49.163L249.679,51.254L245.324,58.102L247.149,68.932L244.511,72.543L239.475,72.524L234.219,68.291L231.558,66.87Z" fill="lightgrey" stroke="white"/><path transform="translate(0,0)" fill="lightgrey" stroke="white"/><path transform="translate(0,0)" d="M264.372,0L270.35,6.145L268.041,12.911L262.368,20.438L249.305,36.614L238.221,37.6L227.467,42.099L217.527,44.68L213.987,37.977L208.071,33.917L209.434,21.421L206.465,9.621L209.39,1.791L210.544,0L264.372,0Z" fill="lightgrey" stroke="white"/><path transform="translate(0,0)" fill="lightgrey" stroke="white"/><path transform="translate(0,0)" fill="lightgrey" stroke="white"/><path transform="translate(0,0)" d="M134.202,225.6L131.431,223.944L130.023,218.414L131.255,215.345L135.191,212.16L136.225,219.279ZM112.496,154.446L113.86,155.273L115.619,155.067L118.5,157.526L127.297,159.247L124.218,165.573L123.448,172.076L121.755,173.622L118.984,172.796L119.182,175.088L114.717,180.122L114.608,184.132L117.532,182.754L119.622,186.624L119.38,189.103L121.183,192.379L119.05,195.019L120.633,201.66L123.954,202.741L123.25,206.415L117.708,211.169L105.657,208.897L96.773,211.622L96.069,216.623L88.988,217.701L82.104,213.952L79.883,215.739L68.646,211.962L66.205,208.698L69.371,203.634L70.537,186.415L64.225,177.096L59.717,172.536L50.393,169.044L49.777,162.343L57.694,160.318L67.942,162.703L66.007,152.114L71.79,156.163L85.997,148.788L87.844,140.914L93.188,138.957L94.068,142.356L96.904,142.519L99.741,146.378L104.008,150.88L107.152,150.14Z" fill="lightgrey" stroke="white"/><path transform="translate(0,0)" fill="lightgrey" stroke="white"/><path transform="translate(0,0)" d="M39.969,111.647L35.351,109.503L31.568,109.661L32.822,104.041L31.568,98.346L36.692,97.912L43.246,104.469ZM65.083,89.962L65.567,91.105L71.021,103.737L75.199,105.431L78.96,117.24L80.697,121.255L88.108,123.189L87.36,129.597L84.237,132.499L86.678,137.57L81.181,142.667L73.022,142.568L62.62,145.226L59.761,143.336L55.737,147.819L50.085,146.735L45.797,150.382L42.542,148.481L51.492,138.347L56.968,136.246L56.924,136.229L47.38,134.601L45.643,130.673L52.042,127.589L48.699,122.163L49.843,115.488L58.925,116.425L58.947,116.425L59.827,110.436L55.737,103.987L55.649,103.844L48.238,101.984L46.786,99.105L49.007,94.312L46.984,91.325L43.707,96.424L43.333,85.959L40.255,80.316L42.476,68.621L47.226,59.196L52.108,60.129L59.475,59.157L52.944,71.658L59.167,70.094L65.853,70.152L64.269,79.352L58.771,89.261Z" fill="lightgrey" stroke="white"/><path transform="translate(0,0)" d="M331.662,224.331L332.586,220.839L331.047,215.205L327.528,212.132L324.141,211.169L321.898,208.598L322.646,207.601L327.814,209.04L336.808,210.404L345.121,214.403L346.177,215.949L349.893,214.642L355.589,216.384L357.458,219.767L361.307,221.672L359.723,222.81L362.714,227.21L361.878,228.171L358.602,227.677L354.05,225.352L352.554,226.674L344.065,227.938L338.172,223.944Z" fill="lightgrey" stroke="white"/><path transform="translate(0,0)" fill="lightgrey" stroke="white"/><path transform="translate(0,0)" fill="lightgrey" stroke="white"/><path transform="translate(0,0)" fill="lightgrey" stroke="white"/><path transform="translate(0,0)" fill="lightgrey" stroke="white"/><path transform="translate(0,0)" fill="lightgrey" stroke="white"/><path transform="translate(0,0)" d="M228.853,275.844L228.919,274.607L221.464,273.153L222.607,269.965L225.95,272.494L230.7,272.062L235.252,272.595L235.098,273.899L238.419,273.001L237.649,275.214ZM236.989,230.115L233.273,229.882L230.084,229.116L222.695,231.22L226.917,235.728L223.817,237.025L220.43,237.038L217.197,232.908L216.054,234.672L217.417,239.434L220.474,243.141L218.165,244.86L221.574,248.479L224.586,250.733L224.674,255.112L219.023,253.058L220.826,257.003L216.955,257.809L219.264,264.542L215.218,264.645L210.204,261.334L207.917,255.19L206.839,250.036L204.464,246.44L201.319,241.953L200.924,239.702L203.761,235.836L204.112,233.234L206.114,232.078L206.224,229.964L210.226,229.239L212.557,227.471L215.856,227.636L216.867,226.22L218.033,225.945L222.563,226.179L227.445,223.944L231.756,226.784L237.297,226.014L237.363,221.95L240.332,224.124L238.441,229.198Z" fill="lightgrey" stroke="white"/><path transform="translate(0,0)" fill="lightgrey" stroke="white"/><path transform="translate(0,0)" fill="lightgrey" stroke="white"/><path transform="translate(0,0)" fill="lightgrey" stroke="white"/><path transform="translate(0,0)" fill="lightgrey" stroke="white"/><path transform="translate(0,0)" d="M192.853,187.338L194.326,190.729L196.283,193.216L193.93,196.465L191.159,194.551L186.937,194.668L181.681,193.231L178.822,193.422L177.503,195.224L175.326,193.231L174.028,196.815L177.019,200.836L178.36,203.475L181.153,206.644L183.484,208.499L185.794,212.004L191.203,215.163L190.522,216.567L184.782,213.501L181.241,210.489L175.656,207.986L170.532,201.761L171.763,201.111L168.97,197.514L168.86,194.594L164.924,193.231L163.055,196.961L161.251,194.067L161.383,191.053L161.603,190.92L165.869,191.215L166.991,189.739L169.058,191.171L171.455,191.333L171.433,188.895L173.566,188.006L174.16,184.446L179.02,182.094L180.955,183.189L185.53,186.966L190.566,188.658Z" fill="lightgrey" stroke="white"/><path transform="translate(0,0)" fill="lightgrey" stroke="white"/><path transform="translate(0,0)" d="M176.799,178.989L178.822,173.209L177.657,171.247L181.087,171.216L181.549,167.498L184.65,169.831L186.915,170.832L192.039,169.708L192.523,167.885L194.964,167.606L197.933,166.179L198.593,166.769L201.451,165.62L202.903,163.453L204.904,162.891L211.436,165.698L212.733,164.748L216.142,167.25L216.56,169.708L212.821,171.6L209.94,177.718L206.246,183.758L201.341,185.417L197.537,185.029L192.853,187.338L190.566,188.658L185.53,186.966L180.955,183.189L179.02,182.094L177.833,179.08Z" fill="lightgrey" stroke="white"/><path transform="translate(0,0)" fill="lightgrey" stroke="white"/><path transform="translate(0,0)" fill="lightgrey" stroke="white"/><path transform="translate(0,0)" d="M39.969,111.647L40.98,118.985L36.362,127.995L25.52,133.852L16.878,132.365L21.826,121.923L18.637,111.507L26.95,103.309L31.568,98.346L32.822,104.041L31.568,109.661L35.351,109.503Z" fill="lightgrey" stroke="white"/><path transform="translate(0,0)" d="M369.993,300L370.125,299.321L366.98,293.841L359.503,289.858L355.259,282.891L356.689,277.117L359.745,274.544L359.283,270.169L355.281,267.912L351.323,258.835L347.98,252.665L349.189,250.259L347.276,241.257L351.455,239.004L352.422,241.993L355.523,245.63L359.701,246.665L361.922,246.44L369.114,240.628L371.401,240.038L373.204,242.367L371.115,246.254L374.919,250.338L376.437,249.956L378.372,255.673L384.156,257.276L388.4,261.114L397.087,262.431L400,261.816L400,300Z" fill="lightgrey" stroke="white"/><path transform="translate(0,0)" d="M328.208,300L324.625,298.019L317.258,296.068L314.795,287.214L328.32,279.566L330.629,270.538L330.057,265.03L333.4,263.153L336.522,258.381L339.139,257.185L346.265,258.186L348.398,260.131L351.323,258.835L355.281,267.912L359.283,270.169L359.745,274.544L356.689,277.117L355.259,282.891L359.503,289.858L366.98,293.841L370.125,299.321L369.993,300L328.208,300Z" fill="lightgrey" stroke="white"/><path transform="translate(0,0)" fill="lightgrey" stroke="white"/><path transform="translate(0,0)" d="M288.523,300L290.121,296.703L291.352,291.238L292.232,289.402L292.408,289.328L294.453,289.34L295.003,288.056L296.652,287.957L296.74,290.943L295.904,292.049L296.036,292.099L294.959,294.38L294.959,294.38L292.76,293.375L291.484,298.189L293.001,298.992L291.44,299.977L291.437,300L288.523,300Z" fill="lightgrey" stroke="white"/><path transform="translate(0,0)" d="M170.07,263.037L165.386,260.17L162.285,259.341L153.774,255.438L154.61,251.457L161.757,252.166L168.003,251.325L172.643,250.654L170.444,256.742L171.345,259.12ZM131.629,245.365L129.32,243.288L129.078,233.696L127.67,229.089L131.035,229.499L134.092,226.99L137.742,232.718L136.885,243.248L134.114,242.741ZM162.175,182.049L161.493,186.401L162.967,190.123L158.106,188.851L153.136,191.952L153.466,196.246L152.719,198.692L154.72,203.044L160.46,207.315L163.538,214.234L170.334,220.894L175.106,220.853L176.601,222.657L174.886,224.29L180.362,227.238L184.848,229.677L190.082,233.872L190.72,235.376L189.576,238.224L186.189,234.496L180.868,233.18L178.317,238.345L182.715,241.284L181.989,245.405L179.438,245.869L176.183,252.547L173.632,253.15L173.654,250.773L174.908,246.586L176.227,244.913L173.852,240.346L171.983,236.336L169.454,235.336L167.651,231.874L163.714,230.415L161.075,227.155L156.545,226.633L151.773,222.948L146.187,217.603L142.031,212.824L140.139,204.495L137.105,203.518L132.135,200.706L129.32,201.862L125.779,205.8L123.25,206.415L123.954,202.741L120.633,201.66L119.05,195.019L121.183,192.379L119.38,189.103L119.622,186.624L122.261,188.495L125.207,188.08L128.638,185.103L129.694,186.505L132.596,186.222L133.916,182.649L138.446,183.773L141.129,182.274L141.613,178.626L145.329,179.896L146.033,178.187L152.059,176.64L153.422,179.745Z" fill="lightgrey" stroke="white"/><path transform="translate(0,0)" fill="lightgrey" stroke="white"/><path transform="translate(0,0)" d="M294.443,300L294.959,298.798L294.959,294.38L296.036,292.099L296.036,292.099L302.832,294.968L314.795,287.214L317.258,296.068L316.092,297.154L306.424,300L294.443,300Z" fill="lightgrey" stroke="white"/><path transform="translate(0,0)" fill="lightgrey" stroke="white"/><path transform="translate(0,0)" d="M400,220.83L398.538,222.311L398.208,220.31L399.704,216.875L398.538,213.981L391.457,211.127L388.708,203.562L385.321,201.4L385.123,198.619L391.061,199.432L391.303,193.128L396.493,191.716L400,192.566L400,220.83ZM400,179.116L395.723,179.412L390.533,177.232L383.474,181.161L377.778,183.024L374.655,181.583L375.293,176.989L371.401,170.955L366.849,171.216L361.681,165.013L365.199,157.984L363.418,156.084L368.3,145.664L374.567,151.184L375.337,144.217L387.938,133.618L397.482,133.368L400,134.635L400,179.116Z" fill="lightgrey" stroke="white"/><path transform="translate(0,0)" fill="lightgrey" stroke="white"/><path transform="translate(0,0)" fill="lightgrey" stroke="white"/><path transform="translate(0,0)" fill="lightgrey" stroke="white"/><path transform="translate(0,0)" fill="lightgrey" stroke="white"/><path transform="translate(0,0)" d="M203.607,221.714L203.189,218.735L201.737,217.897L200.44,215.669L201.583,213.811L203.035,213.205L203.87,210.432L204.97,209.964L205.85,211.155L206.993,211.665L207.785,212.993L208.797,213.388L209.984,214.938L210.842,214.882L210.16,216.903L209.434,217.897L209.632,218.512L208.269,218.833L204.662,220.101L204.376,221.783Z" fill="lightgrey" stroke="white"/><path transform="translate(0,0)" fill="lightgrey" stroke="white"/><path transform="translate(0,0)" fill="lightgrey" stroke="white"/><path transform="translate(0,0)" d="M296.652,287.957L295.003,288.056L294.453,289.34L292.408,289.328L294.585,283.352L297.62,278.148L297.73,277.884L300.479,278.273L301.468,281.168L298.147,283.949Z" fill="lightgrey" stroke="white"/><path transform="translate(0,0)" fill="lightgrey" stroke="white"/><path transform="translate(0,0)" d="M141.197,300L142.8,298.944L144.692,296.641L147.661,294.564L148.012,288.982L155.182,291.496L157.755,290.869L162.857,292.074L170.949,295.31L173.044,300L141.197,300ZM199.157,300L198.9,299.017L200.814,295.506L205.212,292.111L209.434,291.127L217.681,292.614L219.77,295.848L222.057,295.872L223.993,297.105L230.062,297.958L231.35,300L199.157,300Z" fill="lightgrey" stroke="white"/><path transform="translate(0,0)" fill="lightgrey" stroke="white"/><path transform="translate(0,0)" fill="lightgrey" stroke="white"/><path transform="translate(0,0)" d="M216.691,106.851L216.186,104.184L216.845,101.284L214.14,99.592L207.741,97.73L206.443,88.632L213.437,85.27L223.685,85.978L229.688,84.878L230.546,87.168L233.801,87.873L239.672,93.16L240.244,97.966L235.23,101.391L233.823,107.33L227.181,111.261L221.288,111.191L219.814,107.985Z" fill="lightgrey" stroke="white"/><path transform="translate(0,0)" d="M114.739,148.788L115.971,150.928L115.619,155.067L113.86,155.273L112.496,154.446L113.156,149.142Z" fill="lightgrey" stroke="white"/><path transform="translate(0,0)" d="M206.443,88.632L206.663,80.316L209.654,73.254L215.416,69.358L220.276,77.836L225.18,77.608L226.346,68.912L231.558,66.87L234.219,68.291L239.475,72.524L244.511,72.543L247.457,75.15L247.985,80.599L249.942,87.112L243.389,91.325L239.672,93.16L233.801,87.873L230.546,87.168L229.688,84.878L223.685,85.978L213.437,85.27Z" fill="lightgrey" stroke="white"/><path transform="translate(0,0)" d="M19.049,300L20.199,296.959L21.012,293.142L24.949,288.229L31.062,284.882L35.593,281.842L39.683,274.152L41.596,269.558L46.104,269.583L49.777,272.773L55.583,272.253L61.916,273.912L64.577,273.988L64.577,273.988L66.864,278.763L67.238,283.252L69.349,290.979L70.955,292.516L69.833,295.335L61.85,296.544L59.079,299.211L55.539,299.831L55.53,300L19.049,300Z" fill="lightgrey" stroke="white"/><path transform="translate(0,0)" d="M240.442,166.599L241.894,165.247L245.962,164.343L250.448,167.203L252.977,167.544L255.726,170L255.286,173.072L257.507,174.554L258.387,178.308L260.52,180.574L260.102,181.898L261.246,182.799L259.619,183.459L256.012,183.189L255.418,181.973L254.143,182.679L254.583,184.267L252.911,187.07L251.834,190.079L250.294,191.024L249.195,187.025L249.854,183.264L249.657,179.367L246.138,174.02L244.181,170.201L242.289,167.498Z" fill="lightgrey" stroke="white"/><path transform="translate(0,0)" fill="lightgrey" stroke="white"/><path transform="translate(0,0)" fill="lightgrey" stroke="white"/><path transform="translate(0,0)" d="M203.607,221.714L204.376,221.783L204.662,220.101L208.269,218.833L209.632,218.512L211.721,218.023L214.536,217.897L217.593,220.533L218.033,225.945L216.867,226.22L215.856,227.636L212.557,227.471L210.226,229.239L206.224,229.964L203.695,227.993L202.837,224.497Z" fill="lightgrey" stroke="white"/><path transform="translate(0,0)" fill="lightgrey" stroke="white"/><path transform="translate(0,0)" fill="lightgrey" stroke="white"/><path transform="translate(0,0)" d="M194.876,220.894L193.161,218.218L190.522,216.567L191.203,215.163L192.105,210.574L194.084,208.613L195.228,207.858L196.855,209.296L197.735,210.46L199.736,211.353L202.067,213.092L201.583,213.811L200.44,215.669L198.79,216.398L198.395,214.839L195.756,218.916L196.152,221.534Z" fill="lightgrey" stroke="white"/><path transform="translate(0,0)" fill="lightgrey" stroke="white"/><path transform="translate(0,0)" fill="lightgrey" stroke="white"/><path transform="translate(0,0)" fill="lightgrey" stroke="white"/><path transform="translate(0,0)" fill="lightgrey" stroke="white"/><path transform="translate(0,0)" fill="lightgrey" stroke="white"/><path transform="translate(0,0)" fill="lightgrey" stroke="white"/><path transform="translate(0,0)" fill="lightgrey" stroke="white"/><path transform="translate(0,0)" fill="lightgrey" stroke="white"/><path transform="translate(0,0)" fill="lightgrey" stroke="white"/><path transform="translate(0,0)" fill="lightgrey" stroke="white"/><path transform="translate(0,0)" d="M120.017,115.627L121.139,119.088L119.622,128.316L118.082,132.047L114.41,132.047L115.443,142.29L112.079,140.027L108.208,135.765L102.556,137.802L98.07,137.024L101.215,134.335L106.581,119.622L114.937,115.331Z" fill="lightgrey" stroke="white"/><path transform="translate(0,0)" d="M151.528,0L150.717,2.638L151.091,20.175L154.984,26.686L152.96,41.353L147.88,49.672L145.198,56.546L141.085,49.224L129.034,62.913L120.875,65.621L112.43,59.693L110.253,46.897L108.318,17.981L113.948,9.509L127.5,0L151.528,0Z" fill="lightgrey" stroke="white"/><path transform="translate(0,0)" fill="lightgrey" stroke="white"/><path transform="translate(0,0)" fill="lightgrey" stroke="white"/><path transform="translate(0,0)" fill="lightgrey" stroke="white"/><path transform="translate(0,0)" fill="lightgrey" stroke="white"/><path transform="translate(0,0)" fill="lightgrey" stroke="white"/><path transform="translate(0,0)" fill="lightgrey" stroke="white"/><path transform="translate(0,0)" fill="lightgrey" stroke="white"/><path transform="translate(0,0)" fill="lightgrey" stroke="white"/><path transform="translate(0,0)" d="M169.564,139.352L167.057,133.101L167.541,129.681L166.023,124.331L163.802,120.74L165.496,118.018L164.088,112.803L168.244,109.749L177.789,104.914L185.486,101.338L191.577,103.13L192.039,105.697L197.933,105.822L205.454,107.011L216.691,106.851L219.814,107.985L221.288,111.191L221.552,115.749L223.245,119.639L223.201,123.666L219.55,125.726L221.42,130.354L221.552,134.751L224.608,143.238L223.971,145.94L220.936,147.059L215.394,154.939L216.955,159.153L215.636,158.601L209.83,155.003L205.432,156.337L202.551,155.369L198.922,157.383L195.844,154.047L193.337,155.337L192.985,154.764L190.192,150.108L185.64,149.529L185.068,146.54L180.868,145.469L179.966,147.948L176.645,145.973L177.019,143.32L172.467,142.487Z" fill="lightgrey" stroke="white"/><path transform="translate(0,0)" fill="lightgrey" stroke="white"/><path transform="translate(0,0)" fill="lightgrey" stroke="white"/><path transform="translate(0,0)" d="M22.64,221.506L24.861,219.419L27.346,218.218L28.885,222.241L32.492,222.241L33.525,221.2L37.088,221.492L38.803,225.587L35.966,227.787L35.9,234.076L34.911,235.241L34.669,239.017L32.03,239.662L34.471,244.407L32.778,249.548L34.889,251.851L34.053,253.962L31.788,256.859L32.294,259.393L29.831,261.373L26.62,260.299L23.475,261.14L24.399,255.138L23.827,250.378L21.1,249.653L19.627,246.692L20.111,241.552L22.552,238.668L22.991,235.444L24.267,230.62L24.135,227.196L22.904,224.276Z" fill="lightgrey" stroke="white"/><path transform="translate(0,0)" fill="lightgrey" stroke="white"/><path transform="translate(0,0)" d="M291.437,300L291.44,299.977L293.001,298.992L291.484,298.189L292.76,293.375L294.959,294.38L294.959,294.38L294.959,298.798L294.443,300L291.437,300Z" fill="lightgrey" stroke="white"/><path transform="translate(0,0)" fill="lightgrey" stroke="white"/><path transform="translate(0,0)" d="M216.56,169.708L219.198,167.746L222.981,168.751L226.895,168.797L229.732,171.016L231.822,169.615L236.33,168.751L237.847,166.599L240.442,166.599L242.289,167.498L244.181,170.201L246.138,174.02L249.657,179.367L249.854,183.264L249.195,187.025L250.294,191.024L253.021,192.629L255.902,191.23L258.673,192.717L258.805,194.946L255.836,196.815L253.989,195.998L252.273,206.301L248.689,205.413L244.247,202.323L237.055,204.309L234.021,206.458L225.048,206.015L220.364,204.696L217.989,205.313L216.23,201.819L215.108,200.33L216.538,198.895L215.02,197.82L213.107,199.751L209.544,197.252L209.06,193.686L205.344,191.643L204.662,188.866L201.341,185.417L206.246,183.758L209.94,177.718L212.821,171.6Z" fill="lightgrey" stroke="white"/><path transform="translate(0,0)" d="M216.691,106.851L205.454,107.011L197.933,105.822L199.318,101.176L207.741,97.73L214.14,99.592L216.845,101.284L216.186,104.184ZM400,134.635L397.482,133.368L387.938,133.618L375.337,144.217L374.567,151.184L368.3,145.664L363.418,156.084L365.199,157.984L361.681,165.013L366.849,171.216L371.401,170.955L375.293,176.989L374.655,181.583L377.778,183.024L374.985,188.243L369.07,189.68L363,198.619L368.542,206.701L367.948,212.358L374.611,222.103L370.961,225.394L369.905,227.457L367.222,226.908L363.022,221.95L361.307,221.672L357.458,219.767L355.589,216.384L349.893,214.642L346.177,215.949L345.121,214.403L336.808,210.404L327.814,209.04L322.646,207.601L321.898,208.598L314.113,201.443L307.142,198.212L301.864,193.143L306.306,191.746L311.386,184.416L307.956,180.905L316.972,177.263L316.796,175.301L311.32,176.746L311.518,172.75L314.663,170.216L320.579,169.553L321.546,166.505L320.183,161.418L322.668,156.528L322.602,153.776L313.585,150.703L310.023,150.799L306.24,146.33L301.556,147.851L293.815,144.477L293.947,142.585L291.77,138.38L286.888,137.901L286.382,134.867L287.921,132.867L284.007,127.251L277.674,128.215L275.826,127.708L274.287,129.967L272,129.58L270.504,123.154L269.053,119.794L270.24,118.847L275.166,119.191L277.542,116.963L275.782,114.235L271.67,112.418L272.022,110.541L269.537,108.638L265.71,101.75L267.03,98.888L266.436,93.855L260.454,91.27L257.244,92.555L256.386,89.87L249.942,87.112L247.985,80.599L247.457,75.15L244.511,72.543L247.149,68.932L245.324,58.102L249.679,51.254L248.755,49.163L255.704,42.451L249.305,36.614L262.368,20.438L268.041,12.911L270.35,6.145L264.372,0L400,0Z" fill="lightgrey" stroke="white"/><path transform="translate(0,0)" fill="lightgrey" stroke="white"/><path transform="translate(0,0)" fill="lightgrey" stroke="white"/><path transform="translate(0,0)" d="M306.424,300L316.092,297.154L317.258,296.068L324.625,298.019L328.208,300L306.424,300Z" fill="lightgrey" stroke="white"/><path transform="translate(0,0)" fill="lightgrey" stroke="white"/><path transform="translate(0,0)" fill="lightgrey" stroke="white"/><path transform="translate(0,0)" fill="lightgrey" stroke="white"/><path transform="translate(0,0)" fill="lightgrey" stroke="white"/><path transform="translate(0,0)" fill="lightgrey" stroke="white"/><path transform="translate(0,0)" fill="lightgrey" stroke="white"/><path transform="translate(0,0)" fill="lightgrey" stroke="white"/><path transform="translate(0,0)" fill="lightgrey" stroke="white"/><path transform="translate(0,0)" d="M216.23,201.819L214.734,203.749L215.262,206.844L218.231,210.474L215.922,213.092L214.888,215.739L215.548,216.721L214.536,217.897L211.721,218.023L209.632,218.512L209.434,217.897L210.16,216.903L210.842,214.882L209.984,214.938L208.797,213.388L207.785,212.993L206.993,211.665L205.85,211.155L204.97,209.964L203.87,210.432L203.035,213.205L201.583,213.811L202.067,213.092L199.736,211.353L197.735,210.46L196.855,209.296L195.228,207.858L196.657,207.472L197.559,203.49L194.612,200.214L196.13,196.436L193.93,196.465L196.283,193.216L194.326,190.729L192.853,187.338L197.537,185.029L201.341,185.417L204.662,188.866L205.344,191.643L209.06,193.686L209.544,197.252L213.107,199.751L215.02,197.82L216.538,198.895L215.108,200.33Z" fill="lightgrey" stroke="white"/><path transform="translate(0,0)" fill="lightgrey" stroke="white"/><path transform="translate(0,0)" d="M192.985,154.764L193.337,155.337L195.844,154.047L198.922,157.383L202.551,155.369L205.432,156.337L209.83,155.003L215.636,158.601L213.943,161.025L212.733,164.748L211.436,165.698L204.904,162.891L202.903,163.453L201.451,165.62L198.593,166.769L197.933,166.179L194.964,167.606L192.523,167.885L192.039,169.708L186.915,170.832L184.65,169.831L181.549,167.498L180.933,164.312L181.439,163.141L182.297,161.104L185.002,161.261L187.091,160.302L187.245,159.437L188.433,158.995L188.828,156.877L190.236,156.464L191.181,154.78Z" fill="lightgrey" stroke="white"/><path transform="translate(0,0)" d="M162.175,182.049L167.211,182.724L170.29,180.71L175.634,180.499L176.799,178.989L177.833,179.08L179.02,182.094L174.16,184.446L173.566,188.006L171.433,188.895L171.455,191.333L169.058,191.171L166.991,189.739L165.869,191.215L161.603,190.92L162.967,190.123L161.493,186.401Z" fill="lightgrey" stroke="white"/><path transform="translate(0,0)" d="M194.674,0L186.849,7.729L182.407,26.083L186.761,34.952L192.589,41.809L186.981,55.385L180.626,58.142L178.295,77.437L174.842,87.836L167.431,86.778L163.956,95.388L156.897,95.879L154.94,85.605L149.838,72.909L145.198,56.546L145.198,56.546L147.88,49.672L152.96,41.353L154.984,26.686L151.091,20.175L150.717,2.638L151.528,0L194.674,0Z" fill="lightgrey" stroke="white"/><path transform="translate(0,0)" fill="lightgrey" stroke="white"/><path transform="translate(0,0)" d="M314.795,287.214L302.832,294.968L296.036,292.099L295.904,292.049L296.74,290.943L296.652,287.957L298.147,283.949L301.468,281.168L300.479,278.273L297.73,277.884L297.158,272.177L298.653,269.086L300.281,267.439L301.93,265.774L302.26,261.541L304.261,263.024L310.99,260.894L314.223,262.341L319.259,262.315L326.296,259.445L329.573,259.574L336.522,258.381L333.4,263.153L330.057,265.03L330.629,270.538L328.32,279.566Z" fill="lightgrey" stroke="white"/><path transform="translate(0,0)" fill="lightgrey" stroke="white"/><path transform="translate(0,0)" fill="lightgrey" stroke="white"/><path transform="translate(0,0)" fill="lightgrey" stroke="white"/><path transform="translate(0,0)" fill="lightgrey" stroke="white"/><path transform="translate(0,0)" d="M400,236.489L399.726,236.458L400,235.074L400,236.489ZM400,226.348L398.538,222.311L400,220.83L400,226.348Z" fill="lightgrey" stroke="white"/><path transform="translate(0,0)" fill="lightgrey" stroke="white"/><path transform="translate(0,0)" fill="lightgrey" stroke="white"/><path transform="translate(0,0)" d="M133.858,300L133.146,296.483L129.386,293.571L129.32,291.816L124.328,287.474L123.8,281.942L127.56,277.808L128.99,271.656L128.022,264.465L129.276,260.558L135.917,257.458L140.205,258.381L140.008,262.25L145.198,259.445L145.637,260.907L142.581,264.645L142.537,268.142L144.648,270.016L143.856,276.487L139.832,280.217L140.997,284.236L144.142,284.36L145.681,287.845L148.012,288.982L147.661,294.564L144.692,296.641L142.8,298.944L141.197,300L133.858,300Z" fill="lightgrey" stroke="white"/><path transform="translate(0,0)" d="M312.09,229.103L319.193,227.855L324.449,228.582L331.662,224.331L338.172,223.944L344.065,227.938L345.099,230.784L344.505,234.699L349.057,236.687L351.455,239.004L347.276,241.257L349.189,250.259L347.98,252.665L351.323,258.835L348.398,260.131L346.265,258.186L339.139,257.185L336.522,258.381L329.573,259.574L326.296,259.445L319.259,262.315L314.223,262.341L310.99,260.894L304.261,263.024L302.26,261.541L301.93,265.774L300.281,267.439L298.653,269.086L296.41,265.659L298.719,262.805L295.003,263.462L289.879,261.708L285.678,266.082L276.42,266.927L271.472,262.856L264.875,262.599L263.467,265.749L259.245,266.646L253.351,262.612L246.688,262.753L243.059,255.125L238.595,250.826L241.564,244.753L237.693,240.976L244.467,233.357L253.879,233.044L256.452,226.908L268.085,227.979L275.43,222.699L282.556,220.38L292.65,220.199L303.315,225.972ZM238.837,235.512L236.924,231.765L236.989,230.115L238.441,229.198L240.332,224.124L237.363,221.95L243.587,219.363L248.843,220.463L249.569,223.626L254.912,226.248L253.791,228.239L246.534,228.692L243.939,231.179Z" fill="lightgrey" stroke="white"/><path transform="translate(0,0)" fill="lightgrey" stroke="white"/><path transform="translate(0,0)" fill="lightgrey" stroke="white"/><path transform="translate(0,0)" fill="lightgrey" stroke="white"/><path transform="translate(0,0)" d="M272,129.58L274.287,129.967L275.826,127.708L277.674,128.215L284.007,127.251L287.921,132.867L286.382,134.867L286.888,137.901L291.77,138.38L293.947,142.585L293.815,144.477L301.556,147.851L306.24,146.33L310.023,150.799L313.585,150.703L322.602,153.776L322.668,156.528L320.183,161.418L321.546,166.505L320.579,169.553L314.663,170.216L311.518,172.75L311.32,176.746L306.438,177.475L302.37,180.363L296.652,180.83L291.396,184.132L291.748,189.606L294.739,191.702L300.984,191.186L299.775,194.272L293.089,195.779L284.799,200.75L281.412,198.997L282.754,194.96L276.068,192.423L277.168,190.758L282.995,187.843L281.236,185.834L271.736,183.608L271.318,180.288L265.666,181.387L263.401,186.252L258.673,192.717L255.902,191.23L253.021,192.629L250.294,191.024L251.834,190.079L252.911,187.07L254.583,184.267L254.143,182.679L255.418,181.973L256.012,183.189L259.619,183.459L261.246,182.799L260.102,181.898L260.52,180.574L258.387,178.308L257.507,174.554L255.286,173.072L255.726,170L252.977,167.544L250.448,167.203L245.962,164.343L241.894,165.247L240.442,166.599L237.847,166.599L236.33,168.751L231.822,169.615L229.732,171.016L226.895,168.797L222.981,168.751L219.198,167.746L216.56,169.708L216.142,167.25L212.733,164.748L213.943,161.025L215.636,158.601L216.955,159.153L215.394,154.939L220.936,147.059L223.971,145.94L224.608,143.238L221.552,134.751L224.476,134.368L227.819,131.696L232.547,131.461L238.727,132.248L245.544,134.601L250.338,134.801L252.647,136.229L254.934,134.518L256.54,136.809L262.038,136.345L264.479,137.289L264.875,132.332L266.744,130.169Z" fill="lightgrey" stroke="white"/><path transform="translate(0,0)" fill="lightgrey" stroke="white"/><path transform="translate(0,0)" fill="lightgrey" stroke="white"/><path transform="translate(0,0)" fill="lightgrey" stroke="white"/><path transform="translate(0,0)" fill="lightgrey" stroke="white"/><path transform="translate(0,0)" fill="lightgrey" stroke="white"/><path transform="translate(0,0)" fill="lightgrey" stroke="white"/><path transform="translate(0,0)" fill="lightgrey" stroke="white"/><path transform="translate(0,0)" fill="lightgrey" stroke="white"/><path transform="translate(0,0)" fill="lightgrey" stroke="white"/><path transform="translate(0,0)" fill="lightgrey" stroke="white"/></g><g class="mark-shape role-mark layer_1_marks" clip-path="url(#clip2)" role="graphics-object" aria-roledescription="shape mark container"><path aria-label="Percent: 61-80%; Country: undefined; Ratio (%): 76.8; Bucket: 61-80%" role="graphics-symbol" aria-roledescription="geoshape" transform="translate(0,0)" d="M216.23,201.819L217.989,205.313L220.364,204.696L225.048,206.015L234.021,206.458L237.055,204.309L244.247,202.323L248.689,205.413L252.273,206.301L249.107,209.793L246.886,215.753L248.843,220.463L243.587,219.363L237.363,221.95L237.297,226.014L231.756,226.784L227.445,223.944L222.563,226.179L218.033,225.945L217.593,220.533L214.536,217.897L215.548,216.721L214.888,215.739L215.922,213.092L218.231,210.474L215.262,206.844L214.734,203.749Z" fill="#8c6c12"/><path aria-label="Percent: 81-100%; Country: undefined; Ratio (%): 92.2; Bucket: 81-100%" role="graphics-symbol" aria-roledescription="geoshape" transform="translate(0,0)" d="M181.439,163.141L178.624,161.402L175.744,161.873L171.015,159.042L168.86,159.736L165.408,163.531L160.877,160.554L157.425,156.544L154.324,154.286L153.664,150.301L152.587,147.463L157.029,145.372L159.294,142.977L163.692,141.111L165.232,139.254L166.837,140.372L169.564,139.352L172.467,142.487L177.019,143.32L176.645,145.973L179.966,147.948L180.868,145.469L185.068,146.54L185.64,149.529L190.192,150.108L192.985,154.764L191.181,154.78L190.236,156.464L188.828,156.877L188.433,158.995L187.245,159.437L187.091,160.302L185.002,161.261L182.297,161.104Z" fill="#57560e"/><path aria-label="Percent: 41-60%; Country: undefined; Ratio (%): 58.5; Bucket: 41-60%" role="graphics-symbol" aria-roledescription="geoshape" transform="translate(0,0)" d="M138.446,99.934L138.534,104.023L144.714,106.479L144.648,110.189L150.871,108.232L154.302,105.359L161.185,109.485L164.088,112.803L165.496,118.018L163.802,120.74L166.023,124.331L167.541,129.681L167.057,133.101L169.564,139.352L166.837,140.372L165.232,139.254L163.692,141.111L159.294,142.977L157.029,145.372L152.587,147.463L153.664,150.301L154.324,154.286L157.425,156.544L160.877,160.554L158.722,164.811L156.523,165.977L157.403,171.922L156.831,173.454L154.918,171.6L151.993,171.323L147.617,172.949L142.229,172.566L141.371,174.951L138.27,172.444L136.445,172.949L129.892,170.17L128.638,172.137L123.448,172.076L124.218,165.573L127.297,159.247L118.5,157.526L115.619,155.067L115.971,150.928L114.739,148.788L115.443,142.29L114.41,132.047L118.082,132.047L119.622,128.316L121.139,119.088L120.017,115.627L121.205,113.45L126.307,112.89L127.45,115.158L131.585,110.066L130.199,106.142L129.914,100.151L134.532,101.553Z" fill="#be7b14"/><path aria-label="Percent: 0-20%; Country: undefined; Ratio (%): 0.0; Bucket: 0-20%" role="graphics-symbol" aria-roledescription="geoshape" transform="translate(0,0)" d="M151.685,101.876L145.285,95.861L144.428,91.362L153.4,87.762L155.336,93.215ZM138.446,99.934L134.532,101.553L129.914,100.151L127.428,94.202L127.253,83.025L128.264,80.033L130.023,76.676L135.389,75.971L137.545,72.851L142.449,69.629L142.251,75.475L140.447,79.125L141.173,82.256L144.494,83.924L142.998,88.077L141.173,86.889L136.775,94.713Z" fill="#feb99a"/><path aria-label="Percent: 0-20%; Country: undefined; Ratio (%): 9.5; Bucket: 0-20%" role="graphics-symbol" aria-roledescription="geoshape" transform="translate(0,0)" d="M22.64,221.506L22.947,215.64L20.44,212.018L29.083,205.957L36.56,207.472L44.763,207.43L51.272,208.869L56.33,208.428L66.205,208.698L68.646,211.962L79.883,215.739L82.104,213.952L88.988,217.701L96.069,216.623L96.399,221.423L90.615,226.853L82.786,228.568L82.236,231.288L78.476,235.728L76.123,242.194L78.498,246.692L74.979,250.167L73.66,255.203L69.041,256.742L64.709,262.624L56.968,262.74L51.14,262.599L47.314,265.287L44.983,268.142L41.992,267.516L39.727,264.966L37.99,260.584L32.294,259.393L31.788,256.859L34.053,253.962L34.889,251.851L32.778,249.548L34.471,244.407L32.03,239.662L34.669,239.017L34.911,235.241L35.9,234.076L35.966,227.787L38.803,225.587L37.088,221.492L33.525,221.2L32.492,222.241L28.885,222.241L27.346,218.218L24.861,219.419Z" fill="#feb99a"/><path aria-label="Percent: 0-20%; Country: undefined; Ratio (%): 11.9; Bucket: 0-20%" role="graphics-symbol" aria-roledescription="geoshape" transform="translate(0,0)" d="M226.346,68.912L227.049,62.086L224.806,63.563L220.936,59.415L220.408,52.609L228.127,49.285L235.824,47.531L242.443,49.509L248.755,49.163L249.679,51.254L245.324,58.102L247.149,68.932L244.511,72.543L239.475,72.524L234.219,68.291L231.558,66.87Z" fill="#feb99a"/><path aria-label="Percent: 61-80%; Country: undefined; Ratio (%): 74.5; Bucket: 61-80%" role="graphics-symbol" aria-roledescription="geoshape" transform="translate(0,0)" d="M264.372,0L270.35,6.145L268.041,12.911L262.368,20.438L249.305,36.614L238.221,37.6L227.467,42.099L217.527,44.68L213.987,37.977L208.071,33.917L209.434,21.421L206.465,9.621L209.39,1.791L210.544,0L264.372,0Z" fill="#8c6c12"/><path aria-label="Percent: 21-40%; Country: undefined; Ratio (%): 23.6; Bucket: 21-40%" role="graphics-symbol" aria-roledescription="geoshape" transform="translate(0,0)" d="M134.202,225.6L131.431,223.944L130.023,218.414L131.255,215.345L135.191,212.16L136.225,219.279ZM112.496,154.446L113.86,155.273L115.619,155.067L118.5,157.526L127.297,159.247L124.218,165.573L123.448,172.076L121.755,173.622L118.984,172.796L119.182,175.088L114.717,180.122L114.608,184.132L117.532,182.754L119.622,186.624L119.38,189.103L121.183,192.379L119.05,195.019L120.633,201.66L123.954,202.741L123.25,206.415L117.708,211.169L105.657,208.897L96.773,211.622L96.069,216.623L88.988,217.701L82.104,213.952L79.883,215.739L68.646,211.962L66.205,208.698L69.371,203.634L70.537,186.415L64.225,177.096L59.717,172.536L50.393,169.044L49.777,162.343L57.694,160.318L67.942,162.703L66.007,152.114L71.79,156.163L85.997,148.788L87.844,140.914L93.188,138.957L94.068,142.356L96.904,142.519L99.741,146.378L104.008,150.88L107.152,150.14Z" fill="#f3892c"/><path aria-label="Percent: 41-60%; Country: undefined; Ratio (%): 40.4; Bucket: 41-60%" role="graphics-symbol" aria-roledescription="geoshape" transform="translate(0,0)" d="M228.853,275.844L228.919,274.607L221.464,273.153L222.607,269.965L225.95,272.494L230.7,272.062L235.252,272.595L235.098,273.899L238.419,273.001L237.649,275.214ZM236.989,230.115L233.273,229.882L230.084,229.116L222.695,231.22L226.917,235.728L223.817,237.025L220.43,237.038L217.197,232.908L216.054,234.672L217.417,239.434L220.474,243.141L218.165,244.86L221.574,248.479L224.586,250.733L224.674,255.112L219.023,253.058L220.826,257.003L216.955,257.809L219.264,264.542L215.218,264.645L210.204,261.334L207.917,255.19L206.839,250.036L204.464,246.44L201.319,241.953L200.924,239.702L203.761,235.836L204.112,233.234L206.114,232.078L206.224,229.964L210.226,229.239L212.557,227.471L215.856,227.636L216.867,226.22L218.033,225.945L222.563,226.179L227.445,223.944L231.756,226.784L237.297,226.014L237.363,221.95L240.332,224.124L238.441,229.198Z" fill="#be7b14"/><path aria-label="Percent: 0-20%; Country: undefined; Ratio (%): 0.0; Bucket: 0-20%" role="graphics-symbol" aria-roledescription="geoshape" transform="translate(0,0)" d="M192.853,187.338L194.326,190.729L196.283,193.216L193.93,196.465L191.159,194.551L186.937,194.668L181.681,193.231L178.822,193.422L177.503,195.224L175.326,193.231L174.028,196.815L177.019,200.836L178.36,203.475L181.153,206.644L183.484,208.499L185.794,212.004L191.203,215.163L190.522,216.567L184.782,213.501L181.241,210.489L175.656,207.986L170.532,201.761L171.763,201.111L168.97,197.514L168.86,194.594L164.924,193.231L163.055,196.961L161.251,194.067L161.383,191.053L161.603,190.92L165.869,191.215L166.991,189.739L169.058,191.171L171.455,191.333L171.433,188.895L173.566,188.006L174.16,184.446L179.02,182.094L180.955,183.189L185.53,186.966L190.566,188.658Z" fill="#feb99a"/><path aria-label="Percent: 61-80%; Country: undefined; Ratio (%): 63.1; Bucket: 61-80%" role="graphics-symbol" aria-roledescription="geoshape" transform="translate(0,0)" d="M176.799,178.989L178.822,173.209L177.657,171.247L181.087,171.216L181.549,167.498L184.65,169.831L186.915,170.832L192.039,169.708L192.523,167.885L194.964,167.606L197.933,166.179L198.593,166.769L201.451,165.62L202.903,163.453L204.904,162.891L211.436,165.698L212.733,164.748L216.142,167.25L216.56,169.708L212.821,171.6L209.94,177.718L206.246,183.758L201.341,185.417L197.537,185.029L192.853,187.338L190.566,188.658L185.53,186.966L180.955,183.189L179.02,182.094L177.833,179.08Z" fill="#8c6c12"/><path aria-label="Percent: 0-20%; Country: undefined; Ratio (%): 0.0; Bucket: 0-20%" role="graphics-symbol" aria-roledescription="geoshape" transform="translate(0,0)" d="M39.969,111.647L40.98,118.985L36.362,127.995L25.52,133.852L16.878,132.365L21.826,121.923L18.637,111.507L26.95,103.309L31.568,98.346L32.822,104.041L31.568,109.661L35.351,109.503Z" fill="#feb99a"/><path aria-label="Percent: 21-40%; Country: undefined; Ratio (%): 38.2; Bucket: 21-40%" role="graphics-symbol" aria-roledescription="geoshape" transform="translate(0,0)" d="M170.07,263.037L165.386,260.17L162.285,259.341L153.774,255.438L154.61,251.457L161.757,252.166L168.003,251.325L172.643,250.654L170.444,256.742L171.345,259.12ZM131.629,245.365L129.32,243.288L129.078,233.696L127.67,229.089L131.035,229.499L134.092,226.99L137.742,232.718L136.885,243.248L134.114,242.741ZM162.175,182.049L161.493,186.401L162.967,190.123L158.106,188.851L153.136,191.952L153.466,196.246L152.719,198.692L154.72,203.044L160.46,207.315L163.538,214.234L170.334,220.894L175.106,220.853L176.601,222.657L174.886,224.29L180.362,227.238L184.848,229.677L190.082,233.872L190.72,235.376L189.576,238.224L186.189,234.496L180.868,233.18L178.317,238.345L182.715,241.284L181.989,245.405L179.438,245.869L176.183,252.547L173.632,253.15L173.654,250.773L174.908,246.586L176.227,244.913L173.852,240.346L171.983,236.336L169.454,235.336L167.651,231.874L163.714,230.415L161.075,227.155L156.545,226.633L151.773,222.948L146.187,217.603L142.031,212.824L140.139,204.495L137.105,203.518L132.135,200.706L129.32,201.862L125.779,205.8L123.25,206.415L123.954,202.741L120.633,201.66L119.05,195.019L121.183,192.379L119.38,189.103L119.622,186.624L122.261,188.495L125.207,188.08L128.638,185.103L129.694,186.505L132.596,186.222L133.916,182.649L138.446,183.773L141.129,182.274L141.613,178.626L145.329,179.896L146.033,178.187L152.059,176.64L153.422,179.745Z" fill="#f3892c"/><path aria-label="Percent: 21-40%; Country: undefined; Ratio (%): 39.1; Bucket: 21-40%" role="graphics-symbol" aria-roledescription="geoshape" transform="translate(0,0)" d="M216.691,106.851L216.186,104.184L216.845,101.284L214.14,99.592L207.741,97.73L206.443,88.632L213.437,85.27L223.685,85.978L229.688,84.878L230.546,87.168L233.801,87.873L239.672,93.16L240.244,97.966L235.23,101.391L233.823,107.33L227.181,111.261L221.288,111.191L219.814,107.985Z" fill="#f3892c"/><path aria-label="Percent: 0-20%; Country: undefined; Ratio (%): 18.6; Bucket: 0-20%" role="graphics-symbol" aria-roledescription="geoshape" transform="translate(0,0)" d="M114.739,148.788L115.971,150.928L115.619,155.067L113.86,155.273L112.496,154.446L113.156,149.142Z" fill="#feb99a"/><path aria-label="Percent: 81-100%; Country: undefined; Ratio (%): 100.0; Bucket: 81-100%" role="graphics-symbol" aria-roledescription="geoshape" transform="translate(0,0)" d="M206.443,88.632L206.663,80.316L209.654,73.254L215.416,69.358L220.276,77.836L225.18,77.608L226.346,68.912L231.558,66.87L234.219,68.291L239.475,72.524L244.511,72.543L247.457,75.15L247.985,80.599L249.942,87.112L243.389,91.325L239.672,93.16L233.801,87.873L230.546,87.168L229.688,84.878L223.685,85.978L213.437,85.27Z" fill="#57560e"/><path aria-label="Percent: 21-40%; Country: undefined; Ratio (%): 25.4; Bucket: 21-40%" role="graphics-symbol" aria-roledescription="geoshape" transform="translate(0,0)" d="M120.017,115.627L121.139,119.088L119.622,128.316L118.082,132.047L114.41,132.047L115.443,142.29L112.079,140.027L108.208,135.765L102.556,137.802L98.07,137.024L101.215,134.335L106.581,119.622L114.937,115.331Z" fill="#f3892c"/><path aria-label="Percent: 41-60%; Country: undefined; Ratio (%): 44.5; Bucket: 41-60%" role="graphics-symbol" aria-roledescription="geoshape" transform="translate(0,0)" d="M169.564,139.352L167.057,133.101L167.541,129.681L166.023,124.331L163.802,120.74L165.496,118.018L164.088,112.803L168.244,109.749L177.789,104.914L185.486,101.338L191.577,103.13L192.039,105.697L197.933,105.822L205.454,107.011L216.691,106.851L219.814,107.985L221.288,111.191L221.552,115.749L223.245,119.639L223.201,123.666L219.55,125.726L221.42,130.354L221.552,134.751L224.608,143.238L223.971,145.94L220.936,147.059L215.394,154.939L216.955,159.153L215.636,158.601L209.83,155.003L205.432,156.337L202.551,155.369L198.922,157.383L195.844,154.047L193.337,155.337L192.985,154.764L190.192,150.108L185.64,149.529L185.068,146.54L180.868,145.469L179.966,147.948L176.645,145.973L177.019,143.32L172.467,142.487Z" fill="#be7b14"/><path aria-label="Percent: 0-20%; Country: undefined; Ratio (%): 13.6; Bucket: 0-20%" role="graphics-symbol" aria-roledescription="geoshape" transform="translate(0,0)" d="M22.64,221.506L24.861,219.419L27.346,218.218L28.885,222.241L32.492,222.241L33.525,221.2L37.088,221.492L38.803,225.587L35.966,227.787L35.9,234.076L34.911,235.241L34.669,239.017L32.03,239.662L34.471,244.407L32.778,249.548L34.889,251.851L34.053,253.962L31.788,256.859L32.294,259.393L29.831,261.373L26.62,260.299L23.475,261.14L24.399,255.138L23.827,250.378L21.1,249.653L19.627,246.692L20.111,241.552L22.552,238.668L22.991,235.444L24.267,230.62L24.135,227.196L22.904,224.276Z" fill="#feb99a"/><path aria-label="Percent: 21-40%; Country: undefined; Ratio (%): 22.9; Bucket: 21-40%" role="graphics-symbol" aria-roledescription="geoshape" transform="translate(0,0)" d="M216.56,169.708L219.198,167.746L222.981,168.751L226.895,168.797L229.732,171.016L231.822,169.615L236.33,168.751L237.847,166.599L240.442,166.599L242.289,167.498L244.181,170.201L246.138,174.02L249.657,179.367L249.854,183.264L249.195,187.025L250.294,191.024L253.021,192.629L255.902,191.23L258.673,192.717L258.805,194.946L255.836,196.815L253.989,195.998L252.273,206.301L248.689,205.413L244.247,202.323L237.055,204.309L234.021,206.458L225.048,206.015L220.364,204.696L217.989,205.313L216.23,201.819L215.108,200.33L216.538,198.895L215.02,197.82L213.107,199.751L209.544,197.252L209.06,193.686L205.344,191.643L204.662,188.866L201.341,185.417L206.246,183.758L209.94,177.718L212.821,171.6Z" fill="#f3892c"/><path aria-label="Percent: 61-80%; Country: undefined; Ratio (%): 64.6; Bucket: 61-80%" role="graphics-symbol" aria-roledescription="geoshape" transform="translate(0,0)" d="M192.985,154.764L193.337,155.337L195.844,154.047L198.922,157.383L202.551,155.369L205.432,156.337L209.83,155.003L215.636,158.601L213.943,161.025L212.733,164.748L211.436,165.698L204.904,162.891L202.903,163.453L201.451,165.62L198.593,166.769L197.933,166.179L194.964,167.606L192.523,167.885L192.039,169.708L186.915,170.832L184.65,169.831L181.549,167.498L180.933,164.312L181.439,163.141L182.297,161.104L185.002,161.261L187.091,160.302L187.245,159.437L188.433,158.995L188.828,156.877L190.236,156.464L191.181,154.78Z" fill="#8c6c12"/><path aria-label="Percent: 0-20%; Country: undefined; Ratio (%): 13.5; Bucket: 0-20%" role="graphics-symbol" aria-roledescription="geoshape" transform="translate(0,0)" d="M162.175,182.049L167.211,182.724L170.29,180.71L175.634,180.499L176.799,178.989L177.833,179.08L179.02,182.094L174.16,184.446L173.566,188.006L171.433,188.895L171.455,191.333L169.058,191.171L166.991,189.739L165.869,191.215L161.603,190.92L162.967,190.123L161.493,186.401Z" fill="#feb99a"/><path aria-label="Percent: 0-20%; Country: undefined; Ratio (%): 10.1; Bucket: 0-20%" role="graphics-symbol" aria-roledescription="geoshape" transform="translate(0,0)" d="M194.674,0L186.849,7.729L182.407,26.083L186.761,34.952L192.589,41.809L186.981,55.385L180.626,58.142L178.295,77.437L174.842,87.836L167.431,86.778L163.956,95.388L156.897,95.879L154.94,85.605L149.838,72.909L145.198,56.546L145.198,56.546L147.88,49.672L152.96,41.353L154.984,26.686L151.091,20.175L150.717,2.638L151.528,0L194.674,0Z" fill="#feb99a"/></g><g class="mark-group role-legend" role="graphics-symbol" aria-roledescription="legend" aria-label="Symbol legend titled 'Percent' for fill color with 5 values: 81-100%, 61-80%, 41-60%, 21-40%, 0-20%"><g transform="translate(410,0)"><path class="background" aria-hidden="true" d="M0,0h57v79h-57Z" pointer-events="none"/><g><g class="mark-group role-legend-entry"><g transform="translate(0,16)"><path class="background" aria-hidden="true" d="M0,0h0v0h0Z" pointer-events="none"/><g><g class="mark-group role-scope" role="graphics-object" aria-roledescription="group mark container"><g transform="translate(0,0)"><path class="background" aria-hidden="true" d="M0,0h56.029296875v11h-56.029296875Z" pointer-events="none" opacity="1"/><g><g class="mark-symbol role-legend-symbol" pointer-events="none"><path transform="translate(6,6)" d="M5,0A5,5,0,1,1,-5,0A5,5,0,1,1,5,0" fill="#57560e" stroke-width="1.5" opacity="1"/></g><g class="mark-text role-legend-label" pointer-events="none"><text text-anchor="start" transform="translate(16,9)" font-family="sans-serif" font-size="10px" fill="#000" opacity="1">81-100%</text></g></g><path class="foreground" aria-hidden="true" d="" pointer-events="none" display="none"/></g><g transform="translate(0,13)"><path class="background" aria-hidden="true" d="M0,0h56.029296875v11h-56.029296875Z" pointer-events="none" opacity="1"/><g><g class="mark-symbol role-legend-symbol" pointer-events="none"><path transform="translate(6,6)" d="M5,0A5,5,0,1,1,-5,0A5,5,0,1,1,5,0" fill="#8c6c12" stroke-width="1.5" opacity="1"/></g><g class="mark-text role-legend-label" pointer-events="none"><text text-anchor="start" transform="translate(16,9)" font-family="sans-serif" font-size="10px" fill="#000" opacity="1">61-80%</text></g></g><path class="foreground" aria-hidden="true" d="" pointer-events="none" display="none"/></g><g transform="translate(0,26)"><path class="background" aria-hidden="true" d="M0,0h56.029296875v11h-56.029296875Z" pointer-events="none" opacity="1"/><g><g class="mark-symbol role-legend-symbol" pointer-events="none"><path transform="translate(6,6)" d="M5,0A5,5,0,1,1,-5,0A5,5,0,1,1,5,0" fill="#be7b14" stroke-width="1.5" opacity="1"/></g><g class="mark-text role-legend-label" pointer-events="none"><text text-anchor="start" transform="translate(16,9)" font-family="sans-serif" font-size="10px" fill="#000" opacity="1">41-60%</text></g></g><path class="foreground" aria-hidden="true" d="" pointer-events="none" display="none"/></g><g transform="translate(0,39)"><path class="background" aria-hidden="true" d="M0,0h56.029296875v11h-56.029296875Z" pointer-events="none" opacity="1"/><g><g class="mark-symbol role-legend-symbol" pointer-events="none"><path transform="translate(6,6)" d="M5,0A5,5,0,1,1,-5,0A5,5,0,1,1,5,0" fill="#f3892c" stroke-width="1.5" opacity="1"/></g><g class="mark-text role-legend-label" pointer-events="none"><text text-anchor="start" transform="translate(16,9)" font-family="sans-serif" font-size="10px" fill="#000" opacity="1">21-40%</text></g></g><path class="foreground" aria-hidden="true" d="" pointer-events="none" display="none"/></g><g transform="translate(0,52)"><path class="background" aria-hidden="true" d="M0,0h56.029296875v11h-56.029296875Z" pointer-events="none" opacity="1"/><g><g class="mark-symbol role-legend-symbol" pointer-events="none"><path transform="translate(6,6)" d="M5,0A5,5,0,1,1,-5,0A5,5,0,1,1,5,0" fill="#feb99a" stroke-width="1.5" opacity="1"/></g><g class="mark-text role-legend-label" pointer-events="none"><text text-anchor="start" transform="translate(16,9)" font-family="sans-serif" font-size="10px" fill="#000" opacity="1">0-20%</text></g></g><path class="foreground" aria-hidden="true" d="" pointer-events="none" display="none"/></g></g></g><path class="foreground" aria-hidden="true" d="" pointer-events="none" display="none"/></g></g><g class="mark-text role-legend-title" pointer-events="none"><text text-anchor="start" transform="translate(0,9)" font-family="sans-serif" font-size="11px" font-weight="bold" fill="white" opacity="1">Percent</text></g></g><path class="foreground" aria-hidden="true" d="" pointer-events="none" display="none"/></g></g><g class="mark-group role-title"><g transform="translate(0,-51)"><path class="background" aria-hidden="true" d="M0,0h0v0h0Z" pointer-events="none"/><g><g class="mark-text role-title-text" role="graphics-symbol" aria-roledescription="title" aria-label="Title text 'Share of Russian Gas in Total EU Gas Consumption (2021)'" pointer-events="none"><text text-anchor="start" transform="translate(0,13)" font-family="sans-serif" font-size="17px" font-weight="bold" fill="#000" opacity="1"><tspan>Share of Russian Gas</tspan><tspan x="0" dy="19">in Total EU Gas Consumption (2021)</tspan></text></g></g><path class="foreground" aria-hidden="true" d="" pointer-events="none" display="none"/></g></g></g><path class="foreground" aria-hidden="true" d="" display="none"/></g></g></g><defs><clipPath id="clip1"><rect x="0" y="0" width="400" height="300"/></clipPath><clipPath id="clip2"><rect x="0" y="0" width="400" height="300"/></clipPath></defs></svg>