<svg xmlns="http://www.w3.org/2000/svg" xmlns:xlink="http://www.w3.org/1999/xlink" version="1.1" class="marks" width="572" height="295" viewBox="0 0 572 295"><rect width="572" height="295" fill="white"/><g fill="none" stroke-miterlimit="10" transform="translate(72,58)"><g class="mark-group role-frame root" role="graphics-object" aria-roledescription="group mark container"><g transform="translate(0,0)"><path class="background" aria-hidden="true" d="M0.5,0.5h400v200h-400Z" stroke="#ddd"/><g><g class="mark-group role-axis" aria-hidden="true"><g transform="translate(0.5,200.5)"><path class="background" aria-hidden="true" d="M0,0h0v0h0Z" pointer-events="none"/><g><g class="mark-rule role-axis-grid" pointer-events="none"><line transform="translate(21,-200)" x2="0" y2="200" stroke="#ddd" stroke-width="1" opacity="1"/><line transform="translate(71,-200)" x2="0" y2="200" stroke="#ddd" stroke-width="1" opacity="1"/><line transform="translate(121,-200)" x2="0" y2="200" stroke="#ddd" stroke-width="1" opacity="1"/><line transform="translate(171,-200)" x2="0" y2="200" stroke="#ddd" stroke-width="1" opacity="1"/><line transform="translate(221,-200)" x2="0" y2="200" stroke="#ddd" stroke-width="1" opacity="1"/><line transform="translate(271,-200)" x2="0" y2="200" stroke="#ddd" stroke-width="1" opacity="1"/><line transform="translate(321,-200)" x2="0" y2="200" stroke="#ddd" stroke-width="1" opacity="1"/><line transform="translate(371,-200)" x2="0" y2="200" stroke="#ddd" stroke-width="1" opacity="1"/></g></g><path class="foreground" aria-hidden="true" d="" pointer-events="none" display="none"/></g></g><g class="mark-group role-axis" aria-hidden="true"><g transform="translate(0.5,0.5)"><path class="background" aria-hidden="true" d="M0,0h0v0h0Z" pointer-events="none"/><g><g class="mark-rule role-axis-grid" pointer-events="none"><line transform="translate(0,200)" x2="400" y2="0" stroke="#ddd" stroke-width="1" opacity="1"/><line transform="translate(0,158)" x2="400" y2="0" stroke="#ddd" stroke-width="1" opacity="1"/><line transform="translate(0,117)" x2="400" y2="0" stroke="#ddd" stroke-width="1" opacity="1"/><line transform="translate(0,75)" x2="400" y2="0" stroke="#ddd" stroke-width="1" opacity="1"/><line transform="translate(0,33)" x2="400" y2="0" stroke="#ddd" stroke-width="1" opacity="1"/></g></g><path class="foreground" aria-hidden="true" d="" pointer-events="none" display="none"/></g></g><g class="mark-group role-axis" role="graphics-symbol" aria-roledescription="axis" aria-label="X-axis titled 'Time' for a time scale with values from Sunday, 31 July 2016, 7:00:00 PM to Wednesday, 31 July 2024, 7:00:00 PM"><g transform="translate(0.5,200.5)"><path class="background" aria-hidden="true" d="M0,0h0v0h0Z" pointer-events="none"/><g><g class="mark-rule role-axis-tick" pointer-events="none"><line transform="translate(21,0)" x2="0" y2="5" stroke="#888" stroke-width="1" opacity="1"/><line transform="translate(71,0)" x2="0" y2="5" stroke="#888" stroke-width="1" opacity="1"/><line transform="translate(121,0)" x2="0" y2="5" stroke="#888" stroke-width="1" opacity="1"/><line transform="translate(171,0)" x2="0" y2="5" stroke="#888" stroke-width="1" opacity="1"/><line transform="translate(221,0)" x2="0" y2="5" stroke="#888" stroke-width="1" opacity="1"/><line transform="translate(271,0)" x2="0" y2="5" stroke="#888" stroke-width="1" opacity="1"/><line transform="translate(321,0)" x2="0" y2="5" stroke="#888" stroke-width="1" opacity="1"/><line transform="translate(371,0)" x2="0" y2="5" stroke="#888" stroke-width="1" opacity="1"/></g><g class="mark-text role-axis-label" pointer-events="none"><text text-anchor="middle" transform="translate(20.978781656399725,15)" font-family="sans-serif" font-size="10px" fill="#000" opacity="1">2017</text><text text-anchor="middle" transform="translate(70.94455852156058,15)" font-family="sans-serif" font-size="10px" fill="#000" opacity="1">2018</text><text text-anchor="middle" transform="translate(120.91033538672143,15)" font-family="sans-serif" font-size="10px" fill="#000" opacity="1">2019</text><text text-anchor="middle" transform="translate(170.87611225188226,15)" font-family="sans-serif" font-size="10px" fill="#000" opacity="1">2020</text><text text-anchor="middle" transform="translate(220.97878165639972,15)" font-family="sans-serif" font-size="10px" fill="#000" opacity="1">2021</text><text text-anchor="middle" transform="translate(270.94455852156057,15)" font-family="sans-serif" font-size="10px" fill="#000" opacity="1">2022</text><text text-anchor="middle" transform="translate(320.91033538672144,15)" font-family="sans-serif" font-size="10px" fill="#000" opacity="1">2023</text><text text-anchor="middle" transform="translate(370.87611225188226,15)" font-family="sans-serif" font-size="10px" fill="#000" opacity="1">2024</text></g><g class="mark-rule role-axis-domain" pointer-events="none"><line transform="translate(0,0)" x2="400" y2="0" stroke="#888" stroke-width="1" opacity="1"/></g><g class="mark-text role-axis-title" pointer-events="none"><text text-anchor="middle" transform="translate(200,30)" font-family="sans-serif" font-size="11px" font-weight="bold" fill="#000" opacity="1">Time</text></g></g><path class="foreground" aria-hidden="true" d="" pointer-events="none" display="none"/></g></g><g class="mark-group role-axis" role="graphics-symbol" aria-roledescription="axis" aria-label="Y-axis titled 'Terajoule' for a linear scale with values from 0 to 2,400,000"><g transform="translate(0.5,0.5)"><path class="background" aria-hidden="true" d="M0,0h0v0h0Z" pointer-events="none"/><g><g class="mark-rule role-axis-tick" pointer-events="none"><line transform="translate(0,200)" x2="-5" y2="0" stroke="#888" stroke-width="1" opacity="1"/><line transform="translate(0,158)" x2="-5" y2="0" stroke="#888" stroke-width="1" opacity="1"/><line transform="translate(0,117)" x2="-5" y2="0" stroke="#888" stroke-width="1" opacity="1"/><line transform="translate(0,75)" x2="-5" y2="0" stroke="#888" stroke-width="1" opacity="1"/><line transform="translate(0,33)" x2="-5" y2="0" stroke="#888" stroke-width="1" opacity="1"/></g><g class="mark-text role-axis-label" pointer-events="none"><text text-anchor="end" transform="translate(-7,203)" font-family="sans-serif" font-size="10px" fill="#000" opacity="1">0</text><text text-anchor="end" transform="translate(-7,161.33333333333331)" font-family="sans-serif" font-size="10px" fill="#000" opacity="1">500,000</text><text text-anchor="end" transform="translate(-7,119.66666666666666)" font-family="sans-serif" font-size="10px" fill="#000" opacity="1">1,000,000</text><text text-anchor="end" transform="translate(-7,78)" font-family="sans-serif" font-size="10px" fill="#000" opacity="1">1,500,000</text><text text-anchor="end" transform="translate(-7,36.33333333333333)" font-family="sans-serif" font-size="10px" fill="#000" opacity="1">2,000,000</text></g><g class="mark-rule role-axis-domain" pointer-events="none"><line transform="translate(0,200)" x2="0" y2="-200" stroke="#888" stroke-width="1" opacity="1"/></g><g class="mark-text role-axis-title" pointer-events="none"><text text-anchor="middle" transform="translate(-55.4873046875,100) rotate(-90) translate(0,-2)" font-family="sans-serif" font-size="11px" font-weight="bold" fill="#000" opacity="1">Terajoule</text></g></g><path class="foreground" aria-hidden="true" d="" pointer-events="none" display="none"/></g></g><g class="mark-group role-scope layer_0_pathgroup" role="graphics-object" aria-roledescription="group mark container"><g transform="translate(0,0)"><path class="background" aria-hidden="true" d="M0,0h400v200h-400Z"/><g><g class="mark-line role-mark layer_0_marks" role="graphics-object" aria-roledescription="line mark container"><path aria-label="Time: Jul 31, 2016; Terajoule: 754214; geo: EU27_2020" role="graphics-symbol" aria-roledescription="line mark" d="M0,137.149L4.244,128.551L8.35,96.728L12.594,64.452L16.701,43.032L20.945,15.826L25.188,66.167L29.021,83.271L33.265,102.79L37.372,120.532L41.615,129.959L45.722,125.973L49.966,132.072L54.209,121.246L58.316,103.147L62.56,62.812L66.667,44.807L70.91,53.121L75.154,42.237L78.987,55.962L83.231,116.416L87.337,129.743L91.581,132.074L95.688,132.068L99.932,132.386L104.175,125.655L108.282,103.738L112.526,68.99L116.632,59.199L120.876,22.673L125.12,61.451L128.953,75.346L133.196,102.83L137.303,111.773L141.547,131.856L145.654,120.918L149.897,129.368L154.141,119.363L158.248,98.122L162.491,69.155L166.598,54.902L170.842,37.282L175.086,66.667L179.055,73.194L183.299,119.531L187.406,124.925L191.65,128.643L195.756,123.223L200,128.106L204.244,120.046L208.35,96.554L212.594,70.788L216.701,45.168L220.945,26.474L225.188,57.28L229.021,61.86L233.265,85.051L237.372,114.942L241.615,129.889L245.722,131.267L249.966,136.306L254.209,127.02L258.316,102.929L262.56,64.099L266.667,42.727L270.91,38.592L275.154,70.675L278.987,72.577L283.231,106.023L287.337,130.673L291.581,135.515L295.688,134.39L299.932,141.253L304.175,133.706L308.282,125.379L312.526,100.61L316.632,68.504L320.876,67.134L325.12,79.219L328.953,90.14L333.196,114.292L337.303,135.171L341.547,141.427L345.654,139.61L349.897,142.583L354.141,137.728L358.248,125.188L362.491,93.436L366.598,73.96L370.842,54.126L375.086,91.539L379.055,97.539L383.299,121.235L387.406,138.074L391.65,143.302L395.756,140.64L400,143.631" stroke="#134226" stroke-width="2"/></g></g><path class="foreground" aria-hidden="true" d="" display="none"/></g></g><g class="mark-line role-mark layer_1_marks" role="graphics-object" aria-roledescription="line mark container"><path aria-label="TIME_PERIOD: Jul 31, 2016; OBS_VALUE: 1278867.93432" role="graphics-symbol" aria-roledescription="line mark" d="M0,93.428L4.244,93.497L8.35,93.565L12.594,93.634L16.701,93.694L20.945,93.749L25.188,93.794L29.021,93.828L33.265,93.86L37.372,93.887L41.615,93.916L45.722,93.946L49.966,93.982L54.209,94.025L58.316,94.073L62.56,94.129L66.667,94.189L70.91,94.256L75.154,94.332L78.987,94.411L83.231,94.518L87.337,94.656L91.581,94.845L95.688,95.062L99.932,95.051L104.175,94.997L108.282,94.924L112.526,94.853L116.632,94.819L120.876,94.84L125.12,94.922L128.953,95.034L133.196,95.172L137.303,95.281L141.547,95.332L145.654,95.297L149.897,95.168L154.141,94.953L158.248,94.689L162.491,94.4L166.598,94.148L170.842,93.951L175.086,93.83L179.055,93.788L183.299,93.8L187.406,93.837L191.65,93.874L195.756,93.892L200,93.888L204.244,93.867L208.35,93.847L212.594,93.855L216.701,93.924L220.945,94.086L225.188,94.35L229.021,94.67L233.265,95.092L237.372,95.54L241.615,96.018L245.722,96.48L249.966,96.949L254.209,97.411L258.316,97.864L262.56,98.362L266.667,98.902L270.91,99.544L275.154,100.279L278.987,101.014L283.231,101.883L287.337,102.744L291.581,103.62L295.688,104.431L299.932,105.215L304.175,105.938L308.282,106.457L312.526,107.1L316.632,107.798L320.876,108.569L325.12,109.371L328.953,110.114L333.196,110.95L337.303,111.77L341.547,112.627L345.654,113.462L349.897,114.327L354.141,115.193L358.248,116.027L362.491,116.884L366.598,117.705L370.842,118.543L375.086,119.371L379.055,120.139L383.299,120.955L387.406,121.744L391.65,122.56L395.756,123.354L400,124.18" stroke="#feb99a" stroke-width="2"/></g><g class="mark-rule role-mark layer_2_marks" role="graphics-object" aria-roledescription="rule mark container"><line aria-label="TIME_PERIOD_dt: Jun 05, 2022" role="graphics-symbol" aria-roledescription="rule mark" transform="translate(292.2655715263518,0)" x2="0" y2="200" stroke="#f3892c"/></g><g class="mark-text role-mark layer_3_marks" role="graphics-object" aria-roledescription="text mark container"><text aria-label="TIME_PERIOD_dt: Jun 05, 2022; label: Russian sanctions" role="graphics-symbol" aria-roledescription="text mark" text-anchor="start" transform="translate(297.2655715263518,43)" font-family="sans-serif" font-size="11px" fill="black">Russian sanctions</text></g><g class="mark-text role-mark layer_4_marks" role="graphics-object" aria-roledescription="text mark container"><text aria-label="TIME_PERIOD_dt: Jun 05, 2022; label: implemented" role="graphics-symbol" aria-roledescription="text mark" text-anchor="start" transform="translate(297.2655715263518,53)" font-family="sans-serif" font-size="11px" fill="black">implemented</text></g><g class="mark-symbol role-mark layer_5_marks" role="graphics-object" aria-roledescription="symbol mark container"><path aria-label="time: Jul 31, 2024; value: 676427" role="graphics-symbol" aria-roledescription="circle" transform="translate(400,143.63108333333332)" d="M5,0A5,5,0,1,1,-5,0A5,5,0,1,1,5,0" fill="#134226" stroke-width="2" opacity="0.7"/></g><g class="mark-text role-mark layer_6_marks" role="graphics-object" aria-roledescription="text mark container"><text aria-label="time: Jul 31, 2024; value: 676427" role="graphics-symbol" aria-roledescription="text mark" text-anchor="start" transform="translate(408,146.63108333333332)" font-family="sans-serif" font-size="8px" fill="black">Total Consumption</text></g><g class="mark-symbol role-mark layer_7_marks" role="graphics-object" aria-roledescription="symbol mark container"><path aria-label="time: Jul 31, 2024; value: 900000" role="graphics-symbol" aria-roledescription="circle" transform="translate(400,125)" d="M5,0A5,5,0,1,1,-5,0A5,5,0,1,1,5,0" fill="#feb99a" stroke-width="2" opacity="0.7"/></g><g class="mark-text role-mark layer_8_marks" role="graphics-object" aria-roledescription="text mark container"><text aria-label="time: Jul 31, 2024; value: 900000" role="graphics-symbol" aria-roledescription="text mark" text-anchor="start" transform="translate(408,128)" font-family="sans-serif" font-size="8px" fill="black">Adjusted for Seasonality</text></g><g class="mark-text role-mark layer_9_marks" role="graphics-object" aria-roledescription="text mark container"><text aria-label="TIME_PERIOD_dt: Feb 29, 2020; label: COVID-19" role="graphics-symbol" aria-roledescription="text mark" text-anchor="start" transform="translate(184.0554414784394,20)" font-family="sans-serif" font-size="11px" fill="black">COVID-19</text></g><g class="mark-rule role-mark layer_10_marks" role="graphics-object" aria-roledescription="rule mark container"><line aria-label="TIME_PERIOD_dt: Feb 29, 2020" role="graphics-symbol" aria-roledescription="rule mark" transform="translate(179.0554414784394,0)" x2="0" y2="200" stroke="#f3892c"/></g><g class="mark-group role-title"><g transform="translate(-66.4873046875,-52)"><path class="background" aria-hidden="true" d="M0,0h0v0h0Z" pointer-events="none"/><g><g class="mark-text role-title-text" role="graphics-symbol" aria-roledescription="title" aria-label="Title text 'Gas Consumption in the European Union (2016-2024)'" pointer-events="none"><text text-anchor="start" transform="translate(0,13)" font-family="sans-serif" font-size="17px" font-weight="bold" fill="#000" opacity="1"><tspan>Gas Consumption</tspan><tspan x="0" dy="19">in the European Union (2016-2024)</tspan></text></g></g><path class="foreground" aria-hidden="true" d="" pointer-events="none" display="none"/></g></g></g><path class="foreground" aria-hidden="true" d="" display="none"/></g></g></g></svg>